<svg width="199" height="136" viewBox="0 0 199 136" fill="none" xmlns="http://www.w3.org/2000/svg">
<path d="M65.9451 113.769H56.7912V134.505H36.989V113.769H0V96.022L34.1868 1.49451H53.4286L20.3626 96.022H36.989V72.2967H56.7912V96.022H65.9451V113.769Z" fill="url(#paint0_linear_2_10085)"/>
<path d="M137.563 106.11C137.563 115.451 134.761 122.799 129.156 128.154C123.677 133.385 116.64 136 108.047 136C99.3287 136 92.2298 133.385 86.7499 128.154C81.1455 122.799 78.3433 115.451 78.3433 106.11V29.8901C78.3433 20.5494 81.1455 13.2015 86.7499 7.84615C92.2298 2.61538 99.3287 0 108.047 0C116.64 0 123.677 2.61538 129.156 7.84615C134.761 13.2015 137.563 20.5494 137.563 29.8901V106.11ZM117.761 106.857V29.1429C117.761 25.4066 116.827 22.6044 114.959 20.7363C113.215 18.7436 110.911 17.7473 108.047 17.7473C105.182 17.7473 102.816 18.7436 100.948 20.7363C99.0796 22.7289 98.1455 25.5311 98.1455 29.1429V106.857C98.1455 110.469 99.0796 113.271 100.948 115.264C102.816 117.256 105.182 118.253 108.047 118.253C110.911 118.253 113.215 117.319 114.959 115.451C116.827 113.458 117.761 110.593 117.761 106.857Z" fill="url(#paint1_linear_2_10085)"/>
<path d="M198.346 134.505H178.544V24.6593L158.555 39.978V17.5604L178.544 1.49451H198.346V134.505Z" fill="url(#paint2_linear_2_10085)"/>
<defs>
<linearGradient id="paint0_linear_2_10085" x1="29.9968" y1="99.9012" x2="158.363" y2="3.76508" gradientUnits="userSpaceOnUse">
<stop stop-color="#48F5C1"/>
<stop offset="1" stop-color="#757AFF"/>
</linearGradient>
<linearGradient id="paint1_linear_2_10085" x1="29.9968" y1="99.9012" x2="158.363" y2="3.76508" gradientUnits="userSpaceOnUse">
<stop stop-color="#48F5C1"/>
<stop offset="1" stop-color="#757AFF"/>
</linearGradient>
<linearGradient id="paint2_linear_2_10085" x1="29.9968" y1="99.9012" x2="158.363" y2="3.76508" gradientUnits="userSpaceOnUse">
<stop stop-color="#48F5C1"/>
<stop offset="1" stop-color="#757AFF"/>
</linearGradient>
</defs>
</svg>
