<svg width="216" height="136" viewBox="0 0 216 136" fill="none" xmlns="http://www.w3.org/2000/svg">
<path d="M65.9736 113.769H56.8158V134.505H37.005V113.769H0V96.022L34.2016 1.49451H53.4517L20.3715 96.022H37.005V72.2967H56.8158V96.022H65.9736V113.769Z" fill="url(#paint0_linear_2_9385)"/>
<path d="M137.623 106.11C137.623 115.451 134.819 122.799 129.212 128.154C123.73 133.385 116.691 136 108.093 136C99.3717 136 92.2697 133.385 86.7875 128.154C81.1807 122.799 78.3773 115.451 78.3773 106.11V29.8901C78.3773 20.5494 81.1807 13.2015 86.7875 7.84615C92.2697 2.61538 99.3717 0 108.093 0C116.691 0 123.73 2.61538 129.212 7.84615C134.819 13.2015 137.623 20.5494 137.623 29.8901V106.11ZM117.812 106.857V29.1429C117.812 25.4066 116.877 22.6044 115.009 20.7363C113.264 18.7436 110.959 17.7473 108.093 17.7473C105.228 17.7473 102.86 18.7436 100.991 20.7363C99.1225 22.7289 98.1881 25.5311 98.1881 29.1429V106.857C98.1881 110.469 99.1225 113.271 100.991 115.264C102.86 117.256 105.228 118.253 108.093 118.253C110.959 118.253 113.264 117.319 115.009 115.451C116.877 113.458 117.812 110.593 117.812 106.857Z" fill="url(#paint1_linear_2_9385)"/>
<path d="M216 113.769H206.842V134.505H187.031V113.769H150.026V96.022L184.228 1.49451H203.478L170.398 96.022H187.031V72.2967H206.842V96.022H216V113.769Z" fill="url(#paint2_linear_2_9385)"/>
<defs>
<linearGradient id="paint0_linear_2_9385" x1="32.6667" y1="99.9012" x2="163.703" y2="-6.96956" gradientUnits="userSpaceOnUse">
<stop stop-color="#48F5C1"/>
<stop offset="1" stop-color="#757AFF"/>
</linearGradient>
<linearGradient id="paint1_linear_2_9385" x1="32.6667" y1="99.9012" x2="163.703" y2="-6.96956" gradientUnits="userSpaceOnUse">
<stop stop-color="#48F5C1"/>
<stop offset="1" stop-color="#757AFF"/>
</linearGradient>
<linearGradient id="paint2_linear_2_9385" x1="32.6667" y1="99.9012" x2="163.703" y2="-6.96956" gradientUnits="userSpaceOnUse">
<stop stop-color="#48F5C1"/>
<stop offset="1" stop-color="#757AFF"/>
</linearGradient>
</defs>
</svg>
