<svg width="210" height="136" viewBox="0 0 210 136" fill="none" xmlns="http://www.w3.org/2000/svg">
<path d="M59.7802 91.3516C59.7802 101.315 59.2821 108.85 58.2857 113.956C57.2894 119.062 54.7985 123.67 50.8132 127.78C45.5824 133.26 38.5458 136 29.7033 136C20.8608 136 13.7619 133.447 8.40659 128.341C2.8022 123.11 0 115.7 0 106.11V99.5714H19.8022V106.484C19.8022 110.344 20.674 113.271 22.4176 115.264C24.2857 117.256 26.7143 118.253 29.7033 118.253C32.6923 118.253 35.0586 117.132 36.8022 114.89C38.9194 112.026 39.978 104.179 39.978 91.3516C39.978 78.5238 39.1062 70.7399 37.3626 68C35.4945 65.2601 32.9414 63.8901 29.7033 63.8901C26.8388 63.8901 24.4725 64.8864 22.6044 66.8791C20.7363 68.8718 19.8022 71.674 19.8022 75.2857V78.0879H0.934066V1.49451H58.2857V19.2418H19.0549V54.9231C20.7985 52.4322 23.1026 50.315 25.967 48.5714C28.707 46.9524 31.8828 46.1429 35.4945 46.1429C43.2161 46.1429 49.1941 48.8205 53.4286 54.1758C55.7949 57.0403 57.4139 61.0879 58.2857 66.3187C59.2821 71.5494 59.7802 79.8938 59.7802 91.3516Z" fill="url(#paint0_linear_2_10101)"/>
<path d="M134.2 106.11C134.2 115.451 131.398 122.799 125.794 128.154C120.314 133.385 113.277 136 104.684 136C95.966 136 88.8671 133.385 83.3873 128.154C77.7829 122.799 74.9807 115.451 74.9807 106.11V29.8901C74.9807 20.5494 77.7829 13.2015 83.3873 7.84615C88.8671 2.61538 95.966 0 104.684 0C113.277 0 120.314 2.61538 125.794 7.84615C131.398 13.2015 134.2 20.5494 134.2 29.8901V106.11ZM114.398 106.857V29.1429C114.398 25.4066 113.464 22.6044 111.596 20.7363C109.852 18.7436 107.548 17.7473 104.684 17.7473C101.819 17.7473 99.4532 18.7436 97.5851 20.7363C95.7169 22.7289 94.7829 25.5311 94.7829 29.1429V106.857C94.7829 110.469 95.7169 113.271 97.5851 115.264C99.4532 117.256 101.819 118.253 104.684 118.253C107.548 118.253 109.852 117.319 111.596 115.451C113.464 113.458 114.398 110.593 114.398 106.857Z" fill="url(#paint1_linear_2_10101)"/>
<path d="M209.181 106.11C209.181 115.451 206.379 122.799 200.775 128.154C195.295 133.385 188.258 136 179.665 136C170.947 136 163.848 133.385 158.368 128.154C152.764 122.799 149.961 115.451 149.961 106.11V29.8901C149.961 20.5494 152.764 13.2015 158.368 7.84615C163.848 2.61538 170.947 0 179.665 0C188.258 0 195.295 2.61538 200.775 7.84615C206.379 13.2015 209.181 20.5494 209.181 29.8901V106.11ZM189.379 106.857V29.1429C189.379 25.4066 188.445 22.6044 186.577 20.7363C184.833 18.7436 182.529 17.7473 179.665 17.7473C176.8 17.7473 174.434 18.7436 172.566 20.7363C170.698 22.7289 169.764 25.5311 169.764 29.1429V106.857C169.764 110.469 170.698 113.271 172.566 115.264C174.434 117.256 176.8 118.253 179.665 118.253C182.529 118.253 184.833 117.319 186.577 115.451C188.445 113.458 189.379 110.593 189.379 106.857Z" fill="url(#paint2_linear_2_10101)"/>
<defs>
<linearGradient id="paint0_linear_2_10101" x1="31.6354" y1="99.9012" x2="161.765" y2="-2.87983" gradientUnits="userSpaceOnUse">
<stop stop-color="#48F5C1"/>
<stop offset="1" stop-color="#757AFF"/>
</linearGradient>
<linearGradient id="paint1_linear_2_10101" x1="31.6354" y1="99.9012" x2="161.765" y2="-2.87983" gradientUnits="userSpaceOnUse">
<stop stop-color="#48F5C1"/>
<stop offset="1" stop-color="#757AFF"/>
</linearGradient>
<linearGradient id="paint2_linear_2_10101" x1="31.6354" y1="99.9012" x2="161.765" y2="-2.87983" gradientUnits="userSpaceOnUse">
<stop stop-color="#48F5C1"/>
<stop offset="1" stop-color="#757AFF"/>
</linearGradient>
</defs>
</svg>
