<svg width="213" height="72" viewBox="0 0 213 72" fill="none" xmlns="http://www.w3.org/2000/svg">
<path d="M35.7629 51.5069C35.7629 58.7889 34.2768 63.8929 31.3046 66.8187C28.1386 69.8745 23.6481 71.4025 17.833 71.4025C11.9533 71.4025 7.49502 69.8745 4.45824 66.8187C1.48608 63.8278 0 58.8539 0 51.897H10.8549C10.8549 55.603 11.501 58.2038 12.7932 59.6992C13.8916 60.9345 15.5715 61.5522 17.833 61.5522C20.2236 61.5522 21.9682 60.902 23.0666 59.6016C24.2942 58.1712 24.908 55.603 24.908 51.897C24.908 48.1909 24.488 45.6552 23.6481 44.2898C22.8727 42.8594 21.1282 41.5916 18.4145 40.4863L10.1764 37.0728C6.62275 35.5774 4.13518 33.6268 2.71371 31.2212C1.29224 28.7505 0.58151 24.8819 0.58151 19.6154C0.58151 13.1786 2.45527 8.26969 6.20277 4.88874C9.36877 2.09295 13.3101 0.695052 18.0268 0.695052C23.3896 0.695052 27.5248 2.09295 30.4324 4.88874C33.663 8.07463 35.2783 13.1136 35.2783 20.0055H24.4234C24.4234 16.4945 23.8742 14.0238 22.7758 12.5934C21.742 11.228 20.1267 10.5453 17.9299 10.5453C15.9915 10.5453 14.4408 11.1955 13.2778 12.4959C12.0502 13.9263 11.4364 16.2019 11.4364 19.3228C11.4364 22.1836 11.7917 24.2317 12.5025 25.467C13.2132 26.6374 14.7639 27.7102 17.1545 28.6854L25.2957 32.0014C29.3663 33.6918 32.1123 35.9025 33.5337 38.6332C35.0198 41.364 35.7629 45.6552 35.7629 51.5069Z" fill="url(#paint0_linear_2_10145)"/>
<path d="M79.4132 16.397C79.9947 20.4281 80.2855 26.9625 80.2855 36C80.2855 45.0375 79.9947 51.6044 79.4132 55.7005C78.8317 59.7317 77.4425 63.0151 75.2457 65.5508C71.9505 69.5169 67.4923 71.5 61.871 71.5C56.2497 71.5 51.7915 69.5169 48.4963 65.5508C46.3641 62.9501 44.9749 59.6342 44.3288 55.603C43.7473 51.5069 43.4565 44.9725 43.4565 36C43.4565 27.0275 43.7473 20.5256 44.3288 16.4945C44.9749 12.3984 46.3641 9.04991 48.4963 6.44917C51.7915 2.48306 56.2497 0.5 61.871 0.5C67.4923 0.5 71.9505 2.48306 75.2457 6.44917C77.4425 8.98489 78.8317 12.3008 79.4132 16.397ZM68.946 51.6044C69.2691 48.1584 69.4306 42.957 69.4306 36C69.4306 29.043 69.2691 23.8741 68.946 20.4931C68.6876 17.0472 68.0738 14.544 67.1046 12.9835C66.0062 11.228 64.2617 10.3503 61.871 10.3503C59.545 10.3503 57.8327 11.228 56.7343 12.9835C55.119 15.5842 54.3114 23.2564 54.3114 36C54.3114 48.7436 55.119 56.4157 56.7343 59.0165C57.8327 60.772 59.545 61.6497 61.871 61.6497C64.2617 61.6497 66.0062 60.772 67.1046 59.0165C68.0738 57.456 68.6876 54.9853 68.946 51.6044Z" fill="url(#paint1_linear_2_10145)"/>
<path d="M127.379 70.7198H116.04L107.027 42.2418H100.921V70.7198H90.0659V1.28022H107.511C113.779 1.28022 118.269 2.90568 120.983 6.15659C123.761 9.34249 125.15 14.544 125.15 21.761C125.15 26.3773 124.537 30.1483 123.309 33.0742C122.146 36 120.078 38.2756 117.106 39.9011L127.379 70.7198ZM112.939 29.6607C113.843 27.7752 114.295 25.1419 114.295 21.761C114.295 18.38 113.843 15.7793 112.939 13.9588C112.034 12.0733 110.257 11.1305 107.608 11.1305H100.921V32.3915H107.608C110.257 32.3915 112.034 31.4812 112.939 29.6607Z" fill="url(#paint2_linear_2_10145)"/>
<path d="M173.662 70.7198H162.322L153.309 42.2418H147.203V70.7198H136.348V1.28022H153.794C160.061 1.28022 164.551 2.90568 167.265 6.15659C170.043 9.34249 171.433 14.544 171.433 21.761C171.433 26.3773 170.819 30.1483 169.591 33.0742C168.428 36 166.361 38.2756 163.388 39.9011L173.662 70.7198ZM159.221 29.6607C160.126 27.7752 160.578 25.1419 160.578 21.761C160.578 18.38 160.126 15.7793 159.221 13.9588C158.316 12.0733 156.54 11.1305 153.89 11.1305H147.203V32.3915H153.89C156.54 32.3915 158.316 31.4812 159.221 29.6607Z" fill="url(#paint3_linear_2_10145)"/>
<path d="M213 1.28022L199.625 43.5096V70.7198H188.77V43.5096L175.396 1.28022H187.414L194.198 28.783L201.079 1.28022H213Z" fill="url(#paint4_linear_2_10145)"/>
<defs>
<linearGradient id="paint0_linear_2_10145" x1="32.213" y1="52.6543" x2="95.9991" y2="-45.6109" gradientUnits="userSpaceOnUse">
<stop stop-color="#48F5C1"/>
<stop offset="1" stop-color="#757AFF"/>
</linearGradient>
<linearGradient id="paint1_linear_2_10145" x1="32.213" y1="52.6543" x2="95.9991" y2="-45.6109" gradientUnits="userSpaceOnUse">
<stop stop-color="#48F5C1"/>
<stop offset="1" stop-color="#757AFF"/>
</linearGradient>
<linearGradient id="paint2_linear_2_10145" x1="32.213" y1="52.6543" x2="95.9991" y2="-45.6109" gradientUnits="userSpaceOnUse">
<stop stop-color="#48F5C1"/>
<stop offset="1" stop-color="#757AFF"/>
</linearGradient>
<linearGradient id="paint3_linear_2_10145" x1="32.213" y1="52.6543" x2="95.9991" y2="-45.6109" gradientUnits="userSpaceOnUse">
<stop stop-color="#48F5C1"/>
<stop offset="1" stop-color="#757AFF"/>
</linearGradient>
<linearGradient id="paint4_linear_2_10145" x1="32.213" y1="52.6543" x2="95.9991" y2="-45.6109" gradientUnits="userSpaceOnUse">
<stop stop-color="#48F5C1"/>
<stop offset="1" stop-color="#757AFF"/>
</linearGradient>
</defs>
</svg>
