<svg width="17" height="16" viewBox="0 0 17 16" fill="none" xmlns="http://www.w3.org/2000/svg">
<g clip-path="url(#clip0_2_1481)">
<g clip-path="url(#clip1_2_1481)">
<path d="M5.97656 3C4.98766 3 4.02096 3.29324 3.19871 3.84265C2.37647 4.39206 1.73561 5.17295 1.35717 6.08658C0.978729 7.00021 0.879712 8.00555 1.07264 8.97545C1.26556 9.94536 1.74177 10.8363 2.44103 11.5355C3.14029 12.2348 4.03121 12.711 5.00111 12.9039C5.97102 13.0969 6.97635 12.9978 7.88998 12.6194C8.80361 12.241 9.58451 11.6001 10.1339 10.7779C10.6833 9.95561 10.9766 8.98891 10.9766 8C10.9766 6.67392 10.4498 5.40215 9.5121 4.46447C8.57442 3.52678 7.30265 3 5.97656 3ZM5.97656 9.5C5.67989 9.5 5.38988 9.41203 5.14321 9.2472C4.89654 9.08238 4.70428 8.84811 4.59075 8.57403C4.47721 8.29994 4.44751 7.99834 4.50539 7.70736C4.56326 7.41639 4.70613 7.14912 4.9159 6.93934C5.12568 6.72956 5.39296 6.5867 5.68393 6.52882C5.9749 6.47094 6.2765 6.50065 6.55059 6.61418C6.82468 6.72771 7.05895 6.91997 7.22377 7.16664C7.38859 7.41332 7.47656 7.70333 7.47656 8C7.47683 8.19706 7.43821 8.39223 7.36292 8.57434C7.28763 8.75644 7.17715 8.92191 7.03781 9.06125C6.89847 9.20059 6.73301 9.31107 6.5509 9.38636C6.36879 9.46164 6.17362 9.50026 5.97656 9.5Z" fill="#848484"/>
<path d="M11.5966 6.75C12.867 7.1156 14.3666 6.75 14.3666 6.75C13.9314 8.65 12.5514 9.84 10.5614 9.9848C10.1755 10.8805 9.53557 11.6434 8.72072 12.1793C7.90587 12.7152 6.95183 13.0005 5.97656 13L7.47656 8.2324C9.01856 3.332 9.80896 3 13.4658 3H15.9766C15.5566 4.85 14.109 6.2632 11.5966 6.75Z" fill="#B7B7B7"/>
</g>
</g>
<defs>
<clipPath id="clip0_2_1481">
<rect width="16" height="16" fill="white" transform="translate(0.476562)"/>
</clipPath>
<clipPath id="clip1_2_1481">
<rect width="16" height="16" fill="white" transform="translate(0.476562)"/>
</clipPath>
</defs>
</svg>
