<svg width="17" height="16" viewBox="0 0 17 16" fill="none" xmlns="http://www.w3.org/2000/svg">
<g clip-path="url(#clip0_2_1485)">
<path d="M4.33425 2.40039C3.40909 2.43629 2.46926 2.70396 1.77511 3.2814C0.972179 3.92243 0.593189 4.8948 0.476562 5.84044V6.14092C0.520298 6.95323 0.902681 7.73271 1.52394 8.3122C3.39669 10.0496 5.28853 11.7696 7.17922 13.4896C7.53471 13.8096 7.86325 14.1645 8.29724 14.4004H8.62019C9.09791 14.2496 9.3917 13.8497 9.75167 13.5512C11.1433 12.2528 12.5956 11.0087 13.9537 9.68149L9.87848 5.94095C10.3383 5.51942 10.7935 5.09272 11.2611 4.67939C11.6413 4.33477 12.1717 4.13578 12.71 4.17578C13.8034 4.18911 14.7083 5.2117 14.5076 6.19426C14.3898 7.04759 13.5118 7.51109 12.9635 8.12545L14.3404 9.32572C14.799 8.9811 15.2286 8.55827 15.6189 8.14904C16.7077 6.9757 16.7628 5.1307 15.767 3.89378C15.1155 3.02506 14.0131 2.48552 12.8726 2.40039H12.3074C11.4629 2.48757 10.631 2.77992 10.003 3.31325C8.11343 4.99838 6.26418 6.72137 4.37236 8.40445C3.93389 8.00957 3.49871 7.61267 3.06248 7.21574C2.60046 6.79523 2.35497 6.17172 2.49066 5.57993C2.67569 4.70095 3.66578 4.04041 4.64028 4.1881C5.58002 4.27938 6.08465 5.10392 6.76198 5.59931L8.12344 4.41677C7.27677 3.42805 6.13407 2.47424 4.68858 2.40039H4.33425ZM8.51571 7.92664C9.43598 7.93566 10.3193 8.60279 10.4145 9.45984C10.5973 10.5245 9.48701 11.5717 8.31514 11.426C7.1713 11.3891 6.3359 10.2444 6.62186 9.25567C6.7867 8.60438 7.40007 8.07629 8.12114 7.9645C8.25192 7.93758 8.38424 7.92534 8.51571 7.92664ZM8.49519 8.53857C8.16748 8.53858 7.8532 8.65764 7.62148 8.86958C7.38975 9.08151 7.25957 9.36896 7.25956 9.66868C7.25957 9.9684 7.38975 10.2558 7.62148 10.4678C7.8532 10.6797 8.16748 10.7988 8.49519 10.7988C8.8229 10.7988 9.13718 10.6797 9.3689 10.4678C9.60063 10.2558 9.73081 9.9684 9.73082 9.66868C9.73082 9.50018 9.68963 9.33381 9.61025 9.18175C9.52161 9.23926 9.4157 9.27033 9.30701 9.27069C9.23774 9.2707 9.16915 9.25822 9.10515 9.23398C9.04115 9.20974 8.983 9.17421 8.93402 9.12941C8.88504 9.08461 8.84619 9.03142 8.81968 8.97289C8.79318 8.91436 8.77954 8.85162 8.77955 8.78827C8.78027 8.7166 8.79846 8.64598 8.83277 8.58154C8.72296 8.55302 8.60934 8.53856 8.49519 8.53857Z" fill="white" fill-opacity="0.7"/>
</g>
<defs>
<clipPath id="clip0_2_1485">
<rect width="16" height="16" fill="white" transform="translate(0.476562)"/>
</clipPath>
</defs>
</svg>
