<svg width="17" height="16" viewBox="0 0 17 16" fill="none" xmlns="http://www.w3.org/2000/svg">
<g clip-path="url(#clip0_2_1487)">
<path d="M12.3433 12.4836C13.7171 12.4836 15.6347 11.0254 15.9369 9.52189C17.366 9.52189 18.1379 10.1257 18.1379 11.1321C18.1366 12.708 16.0867 15.2008 12.8885 15.2008C8.56218 15.2008 6.68105 12.4041 6.68105 9.26326C6.68853 8.44346 6.80844 7.62678 7.03864 6.82787C2.12804 6.51187 -1.52344 5.32437 -1.52344 3.79068C-1.52344 2.99364 -0.526207 2.10704 1.8057 1.20433C1.92154 3.72828 4.25093 5.31129 7.35846 5.89799C8.50552 3.11642 11.0641 0.800781 14.5632 0.800781C17.1595 0.800781 18.4766 1.79305 18.4766 2.96546C18.4766 4.57564 16.0124 6.54408 10.9709 6.85907C10.3313 7.91172 9.89812 9.12941 9.89812 10.167C9.89812 11.4773 10.5755 12.4836 12.3433 12.4836ZM11.4972 6.12342C14.0155 5.97347 14.8969 5.34148 14.8969 4.89063C14.8969 4.63501 14.5959 4.42468 14.1628 4.42468C13.2461 4.42468 12.2678 5.13115 11.4972 6.12342Z" fill="white" fill-opacity="0.7"/>
</g>
<defs>
<clipPath id="clip0_2_1487">
<rect width="16" height="16" fill="white" transform="translate(0.476562)"/>
</clipPath>
</defs>
</svg>
