<svg width="17" height="16" viewBox="0 0 17 16" fill="none" xmlns="http://www.w3.org/2000/svg">
<path fill-rule="evenodd" clip-rule="evenodd" d="M8.47656 16C12.895 16 16.4766 12.418 16.4766 8C16.4766 3.58203 12.895 0 8.47656 0C4.05811 0 0.476562 3.58203 0.476562 8C0.476562 12.418 4.05811 16 8.47656 16ZM8.47656 15C12.3428 15 15.4766 11.8652 15.4766 8C15.4766 4.13477 12.3428 1 8.47656 1C4.61035 1 1.47656 4.13477 1.47656 8C1.47656 11.8652 4.61035 15 8.47656 15Z" fill="white" fill-opacity="0.7"/>
<path d="M14.0198 5.7039C14.2575 6.2776 14.4042 6.88376 14.4557 7.50057C14.4787 7.77576 14.2527 8 13.9766 8C13.7004 8 13.4792 7.7755 13.4519 7.5007C13.2177 5.13793 11.3386 3.25887 8.97586 3.02462C8.70107 2.99737 8.47656 2.77614 8.47656 2.5C8.47656 2.22386 8.70081 1.99784 8.97599 2.02082C9.5928 2.07234 10.199 2.21909 10.7727 2.45672C11.5006 2.75825 12.1621 3.20021 12.7192 3.75736C13.2764 4.31451 13.7183 4.97595 14.0198 5.7039Z" fill="white" fill-opacity="0.7"/>
</svg>
