<svg width="18" height="16" viewBox="0 0 18 16" fill="none" xmlns="http://www.w3.org/2000/svg">
<g clip-path="url(#clip0_2_1491)">
<path d="M4.26486 16L5.06709 12.5237L0.476562 13.4596L0.699404 12.9248L2.393 8.69081L2.61584 8.11142L2.74954 7.75487L2.79411 7.62117L2.92782 7.26462L3.46263 5.97214L5.86932 0H11.8415L14.1144 5.6156L14.783 7.30919L14.9167 7.66574L14.9612 7.79944L15.0949 8.15599L16.6548 12.1226L17.0114 12.9694L17.1897 13.5042L12.5991 12.5237L13.4014 16L8.81082 12.6574L4.26486 16ZM3.68548 7.71031L6.89439 10.0279L5.86932 13.1922L5.64648 13.8162L8.63255 11.6323L8.85539 11.4986L9.07823 11.6323L12.0643 13.8162L11.886 13.1922L10.861 10.0279L14.0699 7.71031H10.1033L8.89996 3.96657L7.69662 7.71031H3.68548Z" fill="white" fill-opacity="0.7"/>
</g>
<defs>
<clipPath id="clip0_2_1491">
<rect width="16.7577" height="16" fill="white" transform="translate(0.476562)"/>
</clipPath>
</defs>
</svg>
