<svg width="17" height="16" viewBox="0 0 17 16" fill="none" xmlns="http://www.w3.org/2000/svg">
<g clip-path="url(#clip0_2_1494)">
<g clip-path="url(#clip1_2_1494)">
<path d="M0.234375 2C0.234375 0.895431 1.12981 0 2.23438 0H14.2344C15.339 0 16.2344 0.895431 16.2344 2V14C16.2344 15.1046 15.339 16 14.2344 16H2.23438C1.12981 16 0.234375 15.1046 0.234375 14V2Z" fill="white" fill-opacity="0.11"/>
<path fill-rule="evenodd" clip-rule="evenodd" d="M2.45312 11.892C2.45312 11.9281 2.48237 11.9573 2.51844 11.9573H4.35398C4.39005 11.9573 4.41929 11.9281 4.41929 11.892V8.92603H6.64054C6.67661 8.92603 6.70584 8.89679 6.70584 8.86072V7.2874C6.70584 7.25132 6.67661 7.22208 6.64054 7.22208H4.41929V5.77939H7.11254C7.14861 5.77939 7.17785 5.75015 7.17785 5.71407V4.14075C7.17785 4.10468 7.14861 4.07544 7.11254 4.07544H2.51844C2.48237 4.07544 2.45312 4.10468 2.45312 4.14075V11.892Z" fill="white" fill-opacity="0.7"/>
<path d="M14.4854 10.6754C14.5044 10.6527 14.5059 10.62 14.4888 10.5958L13.5448 9.25319C13.5335 9.23709 13.5155 9.22695 13.4959 9.2256C13.4762 9.22425 13.457 9.23189 13.4436 9.24628L13.4346 9.25558C13.4284 9.26199 13.419 9.27155 13.4065 9.28379C13.3815 9.30829 13.3444 9.34353 13.2962 9.38595C13.1997 9.47083 13.0593 9.58414 12.8843 9.69743C12.5333 9.92454 12.0475 10.1485 11.4985 10.1485C10.1603 10.1485 9.44512 9.04559 9.44512 7.95868C9.44512 7.43159 9.6115 6.91278 9.94946 6.52671C10.2862 6.14199 10.7975 5.88428 11.4985 5.88428C12.0022 5.88428 12.4603 6.07024 12.7946 6.2587C12.9613 6.3527 13.0962 6.44671 13.1893 6.5171C13.2358 6.55227 13.2718 6.58149 13.296 6.6018C13.3081 6.61195 13.3172 6.61986 13.3233 6.62517L13.33 6.63113L13.3316 6.63255C13.346 6.64567 13.3659 6.65204 13.3852 6.64932C13.4044 6.64659 13.4215 6.63541 13.4317 6.61881L14.2813 5.23428C14.2964 5.20961 14.2935 5.17791 14.2741 5.1564L14.2731 5.15527L14.2707 5.15262C14.2686 5.15037 14.2655 5.14714 14.2616 5.14301C14.2536 5.13474 14.242 5.12284 14.2266 5.10783C14.1957 5.0778 14.15 5.03532 14.0894 4.98454C13.9683 4.883 13.7876 4.74817 13.5483 4.61352C13.0695 4.34408 12.3558 4.07544 11.4146 4.07544C9.12429 4.07544 7.41602 5.78208 7.41602 8.00063C7.41602 10.2599 9.02861 11.9573 11.4146 11.9573C12.4099 11.9573 13.1768 11.6378 13.6948 11.3182C13.9538 11.1585 14.1507 10.9986 14.2831 10.8783C14.3494 10.8182 14.3995 10.7679 14.4333 10.7325C14.4502 10.7147 14.463 10.7007 14.4717 10.691C14.4761 10.6861 14.4794 10.6823 14.4816 10.6797L14.4843 10.6767L14.4854 10.6754Z" fill="white" fill-opacity="0.7"/>
</g>
</g>
<defs>
<clipPath id="clip0_2_1494">
<rect width="16" height="16" fill="white" transform="translate(0.234375)"/>
</clipPath>
<clipPath id="clip1_2_1494">
<rect width="16" height="16" fill="white" transform="translate(0.234375)"/>
</clipPath>
</defs>
</svg>
