<svg width="18" height="16" viewBox="0 0 18 16" fill="none" xmlns="http://www.w3.org/2000/svg">
<path fill-rule="evenodd" clip-rule="evenodd" d="M3.45936 0.0775237C4.3943 -0.221253 4.9915 0.393692 5.53514 1.12829L5.53584 1.12794C5.63349 1.26008 5.70668 1.37579 5.76822 1.47311L5.77166 1.47854C5.97618 1.80271 6.05305 1.92444 6.49234 1.79332C7.28224 1.51297 8.05544 1.35715 8.93056 1.35715C9.80567 1.35715 10.5785 1.51332 11.3688 1.79332C11.8081 1.9241 11.8849 1.80271 12.0895 1.47854L12.0912 1.47581C12.1531 1.3776 12.2264 1.26131 12.3253 1.12794C12.8689 0.393344 13.4661 -0.221601 14.4011 0.0771759C15.6247 0.468125 15.9189 2.12861 15.5496 3.34459C15.2056 4.47605 15.1565 5.12682 15.6901 5.53933L15.7715 5.59185L15.7729 5.5929L15.7732 5.59324C15.9816 5.72715 16.1906 5.86176 16.384 6.01619C17.1461 6.62522 17.6253 7.51251 17.6253 8.67875C17.6253 11.1191 13.1277 16 8.92986 16C4.73203 16 0.234375 11.1191 0.234375 8.67875C0.234375 7.51251 0.71367 6.62522 1.47644 6.01619L2.08721 5.59324L2.08756 5.5929L2.0886 5.5922L2.17034 5.53968C2.70389 5.12717 2.6545 4.4764 2.31086 3.34494C1.94147 2.12861 2.23573 0.468125 3.45936 0.0775237ZM3.50912 4.4085C3.50913 4.40854 3.50913 4.40857 3.50914 4.4086C4.5592 3.80027 4.70911 3.49627 4.70911 2.88829C4.70911 2.2803 4.10912 1.52031 3.65939 1.52031C3.43946 1.52031 3.21952 1.60191 3.11766 1.8847C3.0805 1.98786 3.05906 2.11779 3.05906 2.2803L3.05941 2.28065C3.05941 2.59205 3.13824 2.86386 3.23517 3.1981L3.2354 3.19889C3.32757 3.51643 3.43608 3.8903 3.50912 4.4085ZM13.2759 3.52011C13.1758 3.3325 13.151 3.13553 13.151 2.88829C13.151 2.2803 13.751 1.52031 14.2008 1.52031C14.5013 1.52031 14.8011 1.67231 14.8011 2.2803L14.8011 2.28034C14.8011 2.28055 14.8011 2.28075 14.8011 2.28096C14.8011 2.59295 14.7221 2.86495 14.6251 3.1992C14.5329 3.51676 14.4244 3.89067 14.3513 4.40892C13.7391 4.05445 13.4329 3.80332 13.2839 3.53495C13.2812 3.53001 13.2785 3.52507 13.2759 3.52011ZM9.54073 9.75749C9.99886 9.56133 10.3532 9.15062 10.3532 8.62174C10.3532 8.20853 10.1827 8.00262 9.96397 7.73863L9.81649 7.55672C9.7191 7.43081 9.62797 7.30072 9.54798 7.15742C9.36155 6.85099 9.19077 6.44891 9.19077 6.00544C9.19077 5.16685 9.71076 4.55156 10.221 3.96861C10.6575 3.47019 10.9083 3.13802 11.1834 2.73385C10.4287 2.45351 9.72676 2.30604 8.9299 2.30604C8.13305 2.30604 7.43115 2.45351 6.67638 2.73385H6.67708C6.67708 2.73387 6.67709 2.73388 6.6771 2.73389C6.95221 3.13769 7.20334 3.4702 7.63949 3.96861C8.14974 4.55156 8.66973 5.1665 8.66973 6.00544C8.66973 6.44926 8.49861 6.85099 8.31252 7.15742C8.23252 7.30072 8.14174 7.43081 8.044 7.55672L8.03128 7.57242L7.9175 7.71276L7.89653 7.73863L7.89595 7.73933C7.67745 8.00333 7.50732 8.2089 7.50732 8.62174C7.50732 9.36468 8.23287 9.88398 8.93025 9.88398C9.13968 9.88398 9.34927 9.83947 9.54073 9.75749ZM1.9881 6.95301C1.7974 7.06989 1.5997 7.26534 1.40309 7.57098C1.25422 7.88436 1.17109 8.25062 1.17109 8.67809C1.17109 9.03043 1.34918 9.61268 1.79995 10.3535C2.23542 11.0693 2.87019 11.8415 3.63922 12.5528C5.20336 13.9994 7.16089 15.0501 8.9299 15.0501H8.93129C9.62035 15.0501 10.338 14.8908 11.0499 14.6107C12.1656 14.1717 13.2671 13.4361 14.222 12.5528C14.9907 11.8419 15.6254 11.0697 16.0612 10.3535C16.512 9.61268 16.6901 9.03043 16.6901 8.67809C16.6901 8.25062 16.607 7.88436 16.4581 7.57098C16.0599 6.95186 15.6571 6.78491 15.3173 6.80717C15.2469 6.81177 15.1877 6.82832 15.1383 6.8548C14.8073 7.03229 14.9148 7.65624 15.0122 8.12506C15.2734 9.38138 14.0456 11.3744 12.8178 12.477C12.7944 12.498 12.7702 12.5139 12.7457 12.5251C12.5272 12.6251 12.2892 12.3514 12.374 12.0808C12.6439 11.2203 12.6578 9.99354 11.2255 8.99008C11.2254 8.99058 11.2253 8.99108 11.2253 8.99158C11.1137 9.69776 10.6282 10.2237 10.0138 10.5072C9.67789 10.6622 9.30346 10.7448 8.9306 10.7448C7.87531 10.7448 6.80751 10.0833 6.63568 8.99008C6.63533 8.99033 6.63497 8.99058 6.63461 8.99083C5.20337 9.99415 5.21734 11.2205 5.48718 12.0808C5.54213 12.2562 5.46152 12.4328 5.3385 12.5082C5.25047 12.5622 5.14072 12.5643 5.04337 12.477C3.81522 11.3744 2.58776 9.38173 2.84897 8.12506C2.96097 7.58628 3.08619 6.84299 2.54394 6.80717C2.37188 6.7959 2.18368 6.83313 1.9881 6.95301ZM7.31684 5.24469C7.26869 5.14847 7.20225 5.06022 7.11707 4.98355C6.65134 4.56408 5.80196 4.6493 5.21971 5.17346C4.90458 5.45715 4.7324 5.81155 4.71458 6.14352C4.69947 6.42492 4.79527 6.6902 5.00893 6.88264H5.00859C5.07306 6.94047 5.145 6.98937 5.22249 7.02803C5.30314 7.06849 5.38805 7.09983 5.47564 7.12149C5.47578 7.12153 5.47591 7.12156 5.47605 7.1216C5.39743 7.03869 5.33364 6.94429 5.28632 6.84249C5.22238 6.70494 5.18851 6.5539 5.18876 6.39952C5.18732 6.13578 5.28515 5.88115 5.46282 5.68622C5.64048 5.49129 5.88498 5.37033 6.14772 5.34737C6.41047 5.32441 6.67223 5.40114 6.88101 5.5623C7.0821 5.71752 7.21985 5.94013 7.26934 6.18862C7.27123 6.19813 7.27299 6.20768 7.27463 6.21727C7.27468 6.21717 7.27472 6.21708 7.27477 6.21699C7.44162 5.88519 7.45957 5.5299 7.31684 5.24469ZM12.3874 7.1213C12.387 7.1214 12.3866 7.1215 12.3862 7.1216C12.571 6.92668 12.6739 6.66816 12.6735 6.39952C12.6735 6.26152 12.6464 6.12486 12.5936 5.99736C12.5879 5.98351 12.5818 5.9698 12.5755 5.95624C12.5238 5.84491 12.4528 5.7434 12.3658 5.65642C12.2682 5.55884 12.1524 5.48144 12.0249 5.42865C11.8974 5.37586 11.7607 5.34871 11.6227 5.34876C11.3756 5.34876 11.1364 5.43582 10.9471 5.59465C10.7578 5.75348 10.6305 5.97392 10.5876 6.21727C10.5773 6.19668 10.5675 6.176 10.5583 6.15526C10.5544 6.14646 10.5506 6.13764 10.5469 6.12881C10.3713 5.70978 10.4297 5.26747 10.7452 4.98355C11.2109 4.56408 12.0606 4.64895 12.6429 5.17346C12.9989 5.49419 13.1725 5.90492 13.1471 6.27156C13.131 6.50452 13.0346 6.71967 12.8537 6.88264C12.7892 6.94047 12.7172 6.98937 12.6397 7.02803C12.5594 7.06843 12.4747 7.09971 12.3874 7.1213ZM9.0979 13.2996L9.0979 13.3006C9.57476 13.2638 9.96571 13.0106 10.2937 12.6363L10.4356 12.0603C10.026 12.1093 9.567 12.0986 9.0979 11.964L9.0979 13.2996ZM11.5097 11.7876L11.5385 11.7198L11.6307 11.4875L11.6325 11.4829L11.6905 11.3212C11.6949 11.3086 11.6974 11.2955 11.6982 11.2823L11.6984 11.2743C11.6978 11.1728 11.5835 11.0967 11.4812 11.1424C11.3103 11.2184 11.1345 11.2828 10.9549 11.3351L10.5928 11.4217C10.2175 11.492 9.78589 11.5108 9.34798 11.4023L9.22103 11.3671L9.09581 11.325C9.09581 11.325 9.03321 11.2962 8.9299 11.2962C8.84156 11.2962 8.76399 11.325 8.76399 11.325L8.63878 11.3671L8.51182 11.4023C8.07392 11.5108 7.64262 11.492 7.26698 11.4217L6.9049 11.3351C6.69725 11.2746 6.51778 11.2043 6.379 11.1424C6.27628 11.0967 6.16199 11.1728 6.16174 11.2743L6.16196 11.2823C6.16272 11.2955 6.1653 11.3086 6.16961 11.3212L6.22769 11.4829L6.22943 11.4875L6.32161 11.7198L6.35047 11.7876C6.48717 12.1021 6.67708 12.468 6.92959 12.8067C7.37306 13.4019 8.05479 13.9132 8.9299 13.9132C9.80502 13.9132 10.4867 13.4019 10.9306 12.8067C11.1827 12.468 11.373 12.1021 11.5097 11.7876Z" fill="white" fill-opacity="0.7"/>
</svg>
