<svg width="18" height="16" viewBox="0 0 18 16" fill="none" xmlns="http://www.w3.org/2000/svg">
<path d="M7.3226 14.4396C7.3226 14.4396 7.21961 14.4208 7.20084 14.4155C6.90045 14.3345 6.58879 14.4144 6.36565 14.5243C6.1484 14.6316 6.24066 14.5866 6.24066 14.5866C5.87859 14.7684 5.49452 14.9358 5.09114 15.0892C3.99579 15.507 2.81087 15.8047 1.61736 16C1.72303 15.8402 1.82012 15.6873 1.90916 15.5414C2.14786 15.1471 2.45415 14.586 2.8114 13.8989C2.8114 13.8989 3.10643 13.3786 3.22444 13.1066C3.3403 12.8363 3.2062 12.5815 3.0383 12.4168C2.86591 12.2416 2.69655 12.0635 2.53032 11.8825C1.29712 10.5855 0.625 8.98967 0.625 7.31501C0.625 3.33861 4.45281 0 9.29337 0C14.1334 0 17.9617 3.33861 17.9617 7.31501C17.9617 11.0736 14.5405 14.2626 10.0781 14.6005C10.0376 14.6011 9.99736 14.5933 9.95995 14.5777C9.92255 14.562 9.88877 14.5388 9.86073 14.5095C9.8327 14.4802 9.811 14.4454 9.797 14.4074C9.783 14.3693 9.77699 14.3288 9.77935 14.2883C9.76648 12.8293 9.75253 9.91659 9.75253 9.91659C9.75253 9.78034 9.84694 9.61298 9.96334 9.54379L12.8133 6.24326C12.867 6.18103 12.9018 6.10466 12.9134 6.02324C12.925 5.94182 12.913 5.85878 12.8787 5.78401C12.8445 5.70924 12.7894 5.64589 12.7202 5.60149C12.651 5.5571 12.5705 5.53353 12.4882 5.53359L5.92686 5.53681C5.84467 5.53685 5.76421 5.56049 5.69507 5.60493C5.62592 5.64937 5.57099 5.71273 5.5368 5.78748C5.50262 5.86223 5.49063 5.94522 5.50224 6.02659C5.51386 6.10796 5.5486 6.18428 5.60234 6.24648L8.4453 9.53896C8.56063 9.61084 8.65397 9.78034 8.65397 9.91713C8.65397 9.91713 8.65021 12.8379 8.65933 14.2985C8.66094 14.5222 8.43833 14.6075 8.32944 14.5962C7.99158 14.5597 7.6556 14.5074 7.3226 14.4396Z" fill="white" fill-opacity="0.7"/>
</svg>
