<svg width="24" height="24" viewBox="0 0 24 24" fill="none" xmlns="http://www.w3.org/2000/svg">
<path fill-rule="evenodd" clip-rule="evenodd" d="M9.492 3.70312L8.90625 3.77362C8.90625 3.77362 6.27825 4.06087 4.359 5.60213H4.3365L4.3125 5.62462C3.882 6.02062 3.6945 6.50737 3.39825 7.21912C3.04904 8.07545 2.75175 8.95204 2.508 9.84412C1.9515 11.8564 1.5 14.2939 1.5 16.5236V16.7111L1.59375 16.8986C2.28825 18.1174 3.52125 18.8936 4.66425 19.4299C5.8065 19.9661 6.79425 20.2504 7.47675 20.2736L7.92225 20.2969L8.15625 19.8986L8.97675 18.4451C9.84675 18.6416 10.8488 18.7736 12 18.7736C13.1512 18.7736 14.1533 18.6416 15.0233 18.4451L15.8438 19.8986L16.0785 20.2969L16.5233 20.2736C17.2058 20.2504 18.1935 19.9661 19.3358 19.4299C20.4788 18.8936 21.7118 18.1174 22.4062 16.8986L22.5 16.7111V16.5236C22.5 14.2939 22.0485 11.8564 21.492 9.84412C21.2483 8.95204 20.951 8.07545 20.6017 7.21912C20.3055 6.50662 20.118 6.02063 19.6875 5.62538L19.6642 5.60138H19.6403C17.7225 4.06088 15.0938 3.77362 15.0938 3.77362L14.508 3.70312L14.2965 4.24237C14.2965 4.24237 14.0797 4.78988 13.9455 5.41463C13.3007 5.32566 12.6509 5.27857 12 5.27362C11.5987 5.27362 10.905 5.29988 10.0545 5.41463C9.9195 4.78988 9.70275 4.24237 9.70275 4.24237L9.492 3.70312ZM8.46075 5.41463C8.493 5.51963 8.52525 5.61038 8.5545 5.69588C7.58475 5.93588 6.5505 6.30187 5.60175 6.89062L6.39825 8.15662C8.34375 6.94912 11.1382 6.77362 12 6.77362C12.861 6.77362 15.6562 6.94912 17.6017 8.15662L18.3983 6.89062C17.4495 6.30187 16.4152 5.93588 15.4455 5.69513C15.4747 5.61038 15.507 5.51963 15.5392 5.41388C16.239 5.55488 17.5755 5.87737 18.6795 6.75037C18.6735 6.75337 18.9607 7.18687 19.2188 7.80487C19.4827 8.44087 19.7752 9.28762 20.0392 10.2424C20.5462 12.0731 20.9445 14.3029 20.9767 16.2656C20.5042 16.9864 19.629 17.6366 18.7028 18.0709C18.1219 18.3454 17.5073 18.5421 16.875 18.6559L16.5 18.0236C16.7227 17.9411 16.9425 17.8511 17.133 17.7656C18.2872 17.2586 18.9142 16.7111 18.9142 16.7111L17.9295 15.5861C17.9295 15.5861 17.508 15.9731 16.5233 16.4066C15.54 16.8401 14.0362 17.2736 12 17.2736C9.96375 17.2736 8.46075 16.8401 7.47675 16.4066C6.492 15.9731 6.0705 15.5861 6.0705 15.5861L5.08575 16.7111C5.08575 16.7111 5.71275 17.2586 6.867 17.7656C7.07498 17.8589 7.28611 17.9449 7.5 18.0236L7.125 18.6566C6.49236 18.5424 5.87755 18.3452 5.2965 18.0701C4.371 17.6366 3.495 16.9864 3.024 16.2656C3.0555 14.3029 3.45375 12.0731 3.9615 10.2424C4.18586 9.41424 4.4596 8.60029 4.78125 7.80487C5.03925 7.18687 5.3265 6.75337 5.3205 6.75037C6.4245 5.87737 7.761 5.55488 8.46075 5.41463ZM9.375 10.5236C8.79525 10.5236 8.28225 10.8544 7.96875 11.2736C7.65525 11.6929 7.5 12.2081 7.5 12.7736C7.5 13.3391 7.65525 13.8544 7.96875 14.2736C8.28225 14.6929 8.79525 15.0236 9.375 15.0236C9.95475 15.0236 10.4677 14.6929 10.7812 14.2736C11.0948 13.8544 11.25 13.3391 11.25 12.7736C11.25 12.2081 11.0948 11.6929 10.7812 11.2736C10.4677 10.8544 9.95475 10.5236 9.375 10.5236ZM14.625 10.5236C14.0452 10.5236 13.5323 10.8544 13.2188 11.2736C12.9052 11.6929 12.75 12.2081 12.75 12.7736C12.75 13.3391 12.9052 13.8544 13.2188 14.2736C13.5323 14.6929 14.0452 15.0236 14.625 15.0236C15.2048 15.0236 15.7177 14.6929 16.0312 14.2736C16.3448 13.8544 16.5 13.3391 16.5 12.7736C16.5 12.2081 16.3448 11.6929 16.0312 11.2736C15.7177 10.8544 15.2048 10.5236 14.625 10.5236ZM9.375 12.0236C9.41625 12.0236 9.46875 12.0386 9.5625 12.1646C9.65625 12.2899 9.75 12.5096 9.75 12.7736C9.75 13.0376 9.65625 13.2574 9.5625 13.3834C9.46875 13.5086 9.41625 13.5236 9.375 13.5236C9.33375 13.5236 9.28125 13.5086 9.1875 13.3826C9.06347 13.2039 8.99796 12.9911 9 12.7736C9 12.5096 9.09375 12.2899 9.1875 12.1639C9.28125 12.0386 9.33375 12.0236 9.375 12.0236ZM14.625 12.0236C14.6662 12.0236 14.7188 12.0386 14.8125 12.1646C14.9062 12.2899 15 12.5096 15 12.7736C15 13.0376 14.9062 13.2574 14.8125 13.3834C14.7188 13.5086 14.6662 13.5236 14.625 13.5236C14.5838 13.5236 14.5312 13.5086 14.4375 13.3826C14.3135 13.2039 14.248 12.9911 14.25 12.7736C14.25 12.5096 14.3438 12.2899 14.4375 12.1639C14.5312 12.0386 14.5838 12.0236 14.625 12.0236Z" fill="#B7B7B7"/>
</svg>
