<svg width="15" height="16" viewBox="0 0 15 16" fill="none" xmlns="http://www.w3.org/2000/svg">
<g clip-path="url(#clip0_2_1469)">
<path d="M14.0856 4.72079C14.0856 4.83965 14.0936 4.95965 14.0841 5.07774C14.0727 5.21527 14.0529 5.35279 14.0273 5.48917C13.9919 5.68256 13.9499 5.87467 13.9012 6.06517C13.8649 6.2057 13.8192 6.34366 13.7645 6.47812C13.6452 6.77031 13.513 7.05641 13.339 7.32003C13.2315 7.4827 13.1218 7.64346 13.0098 7.80232C12.9667 7.86022 12.9196 7.91508 12.8689 7.96651C12.7831 8.05717 12.7005 8.15051 12.6075 8.23127C12.4712 8.35373 12.3284 8.46881 12.1797 8.57603C12.0441 8.67127 11.8917 8.74022 11.753 8.83279C11.5991 8.93489 11.4231 8.97908 11.2593 9.05641C11.113 9.12498 10.9565 9.14784 10.8075 9.20117C10.6178 9.26974 10.4186 9.28574 10.2243 9.32727C10.017 9.37184 9.80638 9.4046 9.59838 9.44727C9.42733 9.48155 9.25781 9.5227 9.08791 9.56079C8.99115 9.58212 8.89362 9.59812 8.79991 9.6267C8.6841 9.66212 8.57133 9.70822 8.45857 9.75012C8.382 9.77755 8.30162 9.79812 8.22848 9.83355C8.12181 9.88689 8.02124 9.95355 7.91495 10.0103C7.74086 10.1025 7.59572 10.2332 7.46391 10.376C7.35267 10.4979 7.25591 10.6355 7.15914 10.7707C6.99991 10.9943 6.89019 11.2446 6.79191 11.5006C6.69514 11.7509 6.60638 12.0042 6.51572 12.2572C6.43153 12.4953 6.35191 12.7341 6.26619 12.9715C6.19049 13.1776 6.11201 13.3827 6.03076 13.5867C5.91486 13.8805 5.77203 14.163 5.6041 14.4305C5.478 14.6328 5.34314 14.8301 5.16905 14.9936C5.02962 15.1242 4.89476 15.2617 4.72334 15.3532C4.55343 15.4446 4.37819 15.5238 4.19 15.5654C3.96387 15.6131 3.73225 15.6297 3.50162 15.6145C3.41438 15.6099 3.32829 15.5859 3.24105 15.5699C3.18886 15.56 3.13591 15.552 3.08524 15.536C3.04257 15.5227 3.00334 15.4991 2.96257 15.4785C2.84753 15.4225 2.72486 15.3779 2.61972 15.3078C2.49104 15.218 2.36884 15.1192 2.254 15.0122C2.04295 14.8248 1.88448 14.592 1.74276 14.3494C1.64682 14.1869 1.5602 14.0192 1.48334 13.8469C1.41019 13.6808 1.35534 13.5067 1.29591 13.3345C1.24971 13.2005 1.20653 13.0655 1.16638 12.9296C1.13134 12.8088 1.10353 12.6854 1.07381 12.5627C1.046 12.4492 1.01667 12.3364 0.99305 12.2217C0.950383 12.0176 0.911145 11.813 0.871145 11.6088C0.853422 11.5226 0.836532 11.4363 0.820478 11.3497C0.797621 11.2202 0.77705 11.0903 0.755336 10.9604C0.738574 10.8636 0.720288 10.7676 0.705812 10.6709C0.68905 10.5642 0.675336 10.4576 0.658574 10.3513C0.644859 10.2591 0.628859 10.1673 0.615907 10.0751C0.603716 9.98898 0.59305 9.90289 0.582002 9.81679C0.569578 9.72416 0.557642 9.63146 0.546193 9.5387C0.534764 9.44879 0.52524 9.35927 0.514955 9.26936L0.478383 8.95774C0.474193 8.92041 0.469621 8.88422 0.466955 8.84689C0.454002 8.69412 0.44105 8.5406 0.428859 8.3867C0.420779 8.29158 0.414429 8.19633 0.409812 8.10098C0.401812 7.95241 0.393812 7.80498 0.390764 7.65679C0.384987 7.41315 0.381685 7.16945 0.380859 6.92574C0.380859 6.78174 0.381621 6.63812 0.391145 6.49527C0.40105 6.34593 0.421621 6.1966 0.437621 6.04727C0.450574 5.92841 0.462002 5.81032 0.477621 5.69146C0.486383 5.62479 0.502002 5.55889 0.515716 5.49336C0.550764 5.32879 0.582764 5.1646 0.622764 5.00117C0.651717 4.88308 0.691717 4.76879 0.724097 4.65222C0.783907 4.4347 0.873812 4.22936 0.961812 4.02251C1.00181 3.92727 1.05134 3.83584 1.10162 3.74632C1.17248 3.62098 1.24105 3.49489 1.32105 3.37679C1.41972 3.23279 1.5241 3.09336 1.63457 2.95851C1.73918 2.83045 1.85017 2.70775 1.96714 2.59089C2.05857 2.49946 2.16219 2.42022 2.26048 2.33755C2.35724 2.25679 2.45134 2.1726 2.55381 2.09984C2.71076 1.98708 2.87191 1.88041 3.03495 1.77641C3.12981 1.71622 3.23076 1.66441 3.32981 1.61108C3.4841 1.52765 3.63838 1.44346 3.79457 1.36422C3.89362 1.3147 3.99534 1.27127 4.09705 1.22936C4.35724 1.12384 4.61667 1.01717 4.87991 0.918506C5.05514 0.853744 5.23495 0.803078 5.41286 0.746316C5.50429 0.716982 5.59381 0.684982 5.686 0.659078C5.76219 0.637744 5.83914 0.626316 5.9161 0.608411C5.99991 0.589363 6.08143 0.563078 6.166 0.547459C6.27991 0.524982 6.39572 0.509363 6.51153 0.491459C6.64105 0.471649 6.77019 0.451459 6.9001 0.433554C6.95305 0.426316 7.00791 0.425935 7.062 0.422125C7.24105 0.41222 7.42162 0.401554 7.60067 0.392792C7.67229 0.388982 7.74619 0.373363 7.81591 0.385554C7.98467 0.41603 8.15457 0.39203 8.32334 0.404601C8.48638 0.41603 8.64829 0.433554 8.81019 0.452982C8.92676 0.467459 9.04181 0.49222 9.15838 0.510125C9.26048 0.525363 9.36219 0.534887 9.46391 0.550887C9.54581 0.56422 9.62772 0.581744 9.70962 0.599649C9.88486 0.638887 10.0597 0.674316 10.233 0.720411C10.387 0.762316 10.5367 0.825173 10.6917 0.861363C10.8704 0.904411 11.0342 0.987839 11.2064 1.04384C11.3824 1.1006 11.534 1.20536 11.7016 1.27546C11.8978 1.35813 12.0673 1.48346 12.2418 1.60232C12.374 1.69298 12.5028 1.78974 12.6228 1.89565C12.8007 2.05184 12.9732 2.21413 13.1393 2.38327C13.2376 2.48232 13.3214 2.59812 13.411 2.70708C13.5557 2.88384 13.6616 3.08536 13.7645 3.28727C13.8464 3.44879 13.9142 3.62022 13.969 3.79355C14.0148 3.93565 14.0285 4.08841 14.0624 4.23393C14.0997 4.39393 14.099 4.55546 14.0902 4.71774L14.0856 4.72079Z" fill="white" fill-opacity="0.7"/>
</g>
<defs>
<clipPath id="clip0_2_1469">
<rect width="14.4762" height="16" fill="white"/>
</clipPath>
</defs>
</svg>
