<svg width="17" height="16" viewBox="0 0 17 16" fill="none" xmlns="http://www.w3.org/2000/svg">
<rect x="0.476562" width="16" height="16" rx="3" fill="white" fill-opacity="0.7"/>
<path d="M15.2239 6.5267C15.0495 6.28257 14.7905 6.08158 14.4465 5.92437C14.1352 5.78217 13.7899 5.70516 13.4101 5.69142C13.4036 5.6911 13.3978 5.69046 13.3914 5.69014C12.6075 5.64892 11.605 5.87516 11.137 6.3206V3.19995H9.27734V12.8H11.137V9.31662C11.137 8.73154 11.1935 8.2893 11.3059 7.99053C11.4186 7.69111 11.596 7.46743 11.8388 7.31885C12.0814 7.1709 12.3569 7.09645 12.6663 7.09645C12.935 7.09645 13.1595 7.15428 13.3377 7.26996C13.5163 7.38563 13.6413 7.54189 13.7117 7.73809C13.7821 7.93492 13.8177 8.3973 13.8177 9.12618V12.8H15.6773V8.72036C15.6773 8.09629 15.6451 7.63551 15.5811 7.33898C15.5175 7.04149 15.398 6.77115 15.2239 6.5267Z" fill="black"/>
<path d="M6.57941 2.55635C6.22904 2.45202 5.47682 2.40002 4.32278 2.40002H1.27734V12.8H3.17498V8.87711H4.4123C5.27159 8.87711 5.92773 8.82742 6.38073 8.72803C6.71445 8.64773 7.04222 8.48317 7.36494 8.23503C7.68766 7.98689 7.95356 7.64528 8.16325 7.20987C8.37265 6.77513 8.47734 6.23803 8.47734 5.59957C8.47734 4.77187 8.29561 4.09688 7.93244 3.57394C7.56898 3.05165 7.11807 2.71201 6.57941 2.55635ZM6.30696 6.43681C6.1639 6.66883 5.9664 6.83897 5.71418 6.94758C5.46195 7.05618 4.96137 7.11048 4.21362 7.11048H3.17498V4.15941H4.09197C4.77577 4.15941 5.23114 4.18311 5.45749 4.2305C5.76534 4.29204 6.01964 4.44573 6.22071 4.69157C6.42118 4.93741 6.52201 5.2494 6.52201 5.62787C6.52201 5.93525 6.45003 6.20512 6.30696 6.43681Z" fill="black"/>
</svg>
