<svg width="16" height="16" viewBox="0 0 16 16" fill="none" xmlns="http://www.w3.org/2000/svg">
<g clip-path="url(#clip0_2_1466)">
<path d="M8 16C12.4183 16 16 12.4183 16 8C16 3.58172 12.4183 0 8 0C3.58172 0 0 3.58172 0 8C0 12.4183 3.58172 16 8 16Z" fill="#B7B7B7" />
<path d="M13.4405 8.08499C13.4405 7.43302 12.9052 6.90389 12.2455 6.90389C11.9204 6.90389 11.6336 7.02672 11.4233 7.2346C10.6106 6.65822 9.48245 6.28027 8.23956 6.23302L8.78452 3.71019L10.5532 4.07869C10.5724 4.52279 10.9452 4.88184 11.4041 4.88184C11.8726 4.88184 12.255 4.50389 12.255 4.0409C12.255 3.5779 11.8726 3.19995 11.4041 3.19995C11.0695 3.19995 10.7827 3.38893 10.6488 3.67239L8.66979 3.25664C8.61243 3.2472 8.55506 3.25664 8.50726 3.28499C8.45946 3.31334 8.43078 3.36058 8.41165 3.41727L7.80933 6.23302C6.53777 6.27082 5.40005 6.63932 4.57784 7.2346C4.36751 7.03617 4.07113 6.90389 3.75563 6.90389C3.09594 6.90389 2.56055 7.43302 2.56055 8.08499C2.56055 8.56688 2.84737 8.97318 3.26803 9.16216C3.24891 9.27554 3.23935 9.39838 3.23935 9.52121C3.23935 11.3354 5.37137 12.8 8.01011 12.8C10.6488 12.8 12.7809 11.3354 12.7809 9.52121C12.7809 9.39838 12.7713 9.28499 12.7522 9.1716C13.1442 8.98263 13.4405 8.56688 13.4405 8.08499ZM5.26621 8.92594C5.26621 8.46294 5.64863 8.08499 6.1171 8.08499C6.58557 8.08499 6.968 8.46294 6.968 8.92594C6.968 9.38893 6.58557 9.76688 6.1171 9.76688C5.64863 9.76688 5.26621 9.38893 5.26621 8.92594ZM10.0178 11.1464C9.43464 11.7228 8.32561 11.7606 8.00055 11.7606C7.67549 11.7606 6.55689 11.7133 5.98325 11.1464C5.89721 11.0614 5.89721 10.9196 5.98325 10.8346C6.0693 10.7496 6.21271 10.7496 6.29875 10.8346C6.66206 11.1937 7.44603 11.3259 8.01011 11.3259C8.57419 11.3259 9.3486 11.1937 9.72146 10.8346C9.80751 10.7496 9.95092 10.7496 10.037 10.8346C10.1039 10.9291 10.1039 11.0614 10.0178 11.1464ZM9.86487 9.76688C9.3964 9.76688 9.01397 9.38893 9.01397 8.92594C9.01397 8.46294 9.3964 8.08499 9.86487 8.08499C10.3333 8.08499 10.7158 8.46294 10.7158 8.92594C10.7158 9.38893 10.3333 9.76688 9.86487 9.76688Z" fill="black"/>
</g>
<defs>
<clipPath id="clip0_2_1466">
<rect width="16" height="16" rx="8" fill="white"/>
</clipPath>
</defs>
</svg>
