<svg width="17" height="16" viewBox="0 0 17 16" fill="none" xmlns="http://www.w3.org/2000/svg">
<g opacity="0.7" clip-path="url(#clip0_2_1471)">
<path d="M6.87656 10.3326V5.66756L11.0366 8.00006L6.87656 10.3326Z" fill="black"/>
<path d="M16.139 4.25867C16.048 3.93007 15.8697 3.63047 15.622 3.38984C15.3743 3.14922 15.0659 2.97602 14.7277 2.88757C13.482 2.56006 8.47656 2.56006 8.47656 2.56006C8.47656 2.56006 3.47112 2.56006 2.22547 2.88757C1.88723 2.97602 1.57883 3.14922 1.33114 3.38984C1.08345 3.63047 0.905162 3.93007 0.814117 4.25867C0.581527 5.49281 0.468658 6.74543 0.476992 8.00006C0.468658 9.25469 0.581527 10.5073 0.814117 11.7414C0.905162 12.07 1.08345 12.3696 1.33114 12.6103C1.57883 12.8509 1.88723 13.0241 2.22547 13.1125C3.47112 13.4401 8.47656 13.4401 8.47656 13.4401C8.47656 13.4401 13.482 13.4401 14.7277 13.1125C15.0659 13.0241 15.3743 12.8509 15.622 12.6103C15.8697 12.3696 16.048 12.07 16.139 11.7414C16.3716 10.5073 16.4845 9.25469 16.4761 8.00006C16.4845 6.74543 16.3716 5.49281 16.139 4.25867ZM6.87665 10.3315V5.66863L11.0307 8.00006L6.87665 10.3315Z" fill="white"/>
</g>
<defs>
<clipPath id="clip0_2_1471">
<rect width="16" height="16" fill="white" transform="translate(0.476562)"/>
</clipPath>
</defs>
</svg>
