<svg width="69" height="16" viewBox="0 0 69 16" fill="none" xmlns="http://www.w3.org/2000/svg">
<path d="M13.957 16L17.1466 0H24.1547L23.6157 2.69663H19.6174L18.8313 6.58427H22.2679L21.7289 9.2809H18.2922L16.9669 16H13.957Z" fill="white"/>
<path d="M31.032 16H27.9996L28.0221 13.4157H24.518L23.4847 16H20.2502L27.3482 0H30.3132L31.032 16ZM27.9771 10.7191L27.9996 4.44944L25.5962 10.7191H27.9771Z" fill="white"/>
<path d="M32.339 16L35.5286 0H39.5942C40.882 0 41.8329 0.307116 42.4468 0.921348C42.9859 1.46067 43.2555 2.21723 43.2555 3.19101C43.2555 3.86517 43.1956 4.50187 43.0758 5.10112C42.6864 7.04869 42.0949 8.38951 41.3013 9.1236C40.5076 9.8427 39.3995 10.2022 37.9769 10.2022H36.4944L35.3489 16H32.339ZM37.0335 7.50562H38.1341C38.7181 7.50562 39.1374 7.32584 39.392 6.96629C39.6616 6.59176 39.8862 5.97004 40.0659 5.10112C40.1707 4.57678 40.2231 4.1573 40.2231 3.8427C40.2231 3.45318 40.1333 3.16854 39.9536 2.98876C39.7739 2.79401 39.4669 2.69663 39.0326 2.69663H37.9994L37.0335 7.50562Z" fill="white"/>
<path d="M42.7144 16L45.904 0H49.9696C51.2575 0 52.2084 0.307116 52.8223 0.921348C53.3614 1.46067 53.6309 2.21723 53.6309 3.19101C53.6309 3.86517 53.571 4.50187 53.4512 5.10112C53.0619 7.04869 52.4704 8.38951 51.6768 9.1236C50.8831 9.8427 49.775 10.2022 48.3524 10.2022H46.8699L45.7243 16H42.7144ZM47.409 7.50562H48.5096C49.0936 7.50562 49.5129 7.32584 49.7675 6.96629C50.037 6.59176 50.2617 5.97004 50.4413 5.10112C50.5462 4.57678 50.5986 4.1573 50.5986 3.8427C50.5986 3.45318 50.5087 3.16854 50.329 2.98876C50.1493 2.79401 49.8424 2.69663 49.4081 2.69663H48.3748L47.409 7.50562Z" fill="white"/>
<path d="M61.259 16H58.2267L58.2491 13.4157H54.7451L53.7118 16H50.4773L57.5753 0H60.5403L61.259 16ZM58.2042 10.7191L58.2267 4.44944L55.8233 10.7191H58.2042Z" fill="white"/>
<path d="M62.5661 16L65.7556 0H68.7655L65.5759 16H62.5661Z" fill="white"/>
<path d="M2.33513 11.0428L8.44726 6.01974L9.87234 4.84859L9.86882 0L0 8.11005L2.33513 11.0428Z" fill="#10E7C1"/>
<path d="M4.50844 13.7725L7.31895 11.4627L8.44726 10.5354V6.01974L2.33513 11.0428L4.50844 13.7725Z" fill="#0DD0AD" fill-opacity="0.72"/>
<path d="M6.28264 16L7.31895 15.1482V11.4627L4.50844 13.7725L6.28264 16Z" fill="#48F5C1" fill-opacity="0.33"/>
</svg>
