<svg width="22" height="19" viewBox="0 0 22 19" fill="none" xmlns="http://www.w3.org/2000/svg">
<g filter="url(#filter0_d_2_2162)">
<path d="M6.14201 13.984C6.157 14.0456 6.18419 14.1036 6.22198 14.1546C6.25976 14.2055 6.30737 14.2483 6.36199 14.2806C6.41661 14.3128 6.47714 14.3337 6.53999 14.3422C6.60285 14.3506 6.66676 14.3464 6.72795 14.3297C9.5211 13.5563 12.4719 13.5563 15.2651 14.3297C15.3262 14.3464 15.3902 14.3506 15.453 14.3422C15.5159 14.3337 15.5764 14.3128 15.631 14.2806C15.6856 14.2483 15.7332 14.2055 15.771 14.1546C15.8088 14.1036 15.836 14.0456 15.851 13.984L17.3451 7.6383C17.3656 7.55336 17.362 7.46438 17.3346 7.3814C17.3073 7.29842 17.2572 7.22474 17.1902 7.16868C17.1232 7.11262 17.0418 7.07641 16.9553 7.06414C16.8688 7.05187 16.7806 7.06403 16.7006 7.09924L13.7358 8.4176C13.6283 8.4649 13.5072 8.47071 13.3957 8.43392C13.2843 8.39713 13.1904 8.32034 13.1322 8.21838L11.4096 5.11291C11.369 5.03964 11.3096 4.97857 11.2375 4.93605C11.1654 4.89352 11.0832 4.87109 10.9994 4.87109C10.9157 4.87109 10.8335 4.89352 10.7614 4.93605C10.6892 4.97857 10.6298 5.03964 10.5893 5.11291L8.86662 8.21838C8.80846 8.32034 8.71459 8.39713 8.60313 8.43392C8.49167 8.47071 8.37053 8.4649 8.2631 8.4176L5.29826 7.09924C5.21829 7.06403 5.13006 7.05187 5.04355 7.06414C4.95704 7.07641 4.87567 7.11262 4.80865 7.16868C4.74162 7.22474 4.6916 7.29842 4.66422 7.3814C4.63685 7.46438 4.63321 7.55336 4.65373 7.6383L6.14201 13.984Z" stroke="url(#paint0_linear_2_2162)" stroke-linecap="round" stroke-linejoin="round"/>
</g>
<defs>
<filter id="filter0_d_2_2162" x="-0.5" y="-1.5" width="23" height="23" filterUnits="userSpaceOnUse" color-interpolation-filters="sRGB">
<feFlood flood-opacity="0" result="BackgroundImageFix"/>
<feColorMatrix in="SourceAlpha" type="matrix" values="0 0 0 0 0 0 0 0 0 0 0 0 0 0 0 0 0 0 127 0" result="hardAlpha"/>
<feOffset/>
<feGaussianBlur stdDeviation="2"/>
<feColorMatrix type="matrix" values="0 0 0 0 0.280729 0 0 0 0 0.9625 0 0 0 0 0.757969 0 0 0 1 0"/>
<feBlend mode="normal" in2="BackgroundImageFix" result="effect1_dropShadow_2_2162"/>
<feBlend mode="normal" in="SourceGraphic" in2="effect1_dropShadow_2_2162" result="shape"/>
</filter>
<linearGradient id="paint0_linear_2_2162" x1="6.56397" y1="11.8314" x2="15.2736" y2="5.82841" gradientUnits="userSpaceOnUse">
<stop stop-color="#48F5C1"/>
<stop offset="1" stop-color="#757AFF"/>
</linearGradient>
</defs>
</svg>
