<?xml version="1.0" encoding="utf-8"?><svg viewBox="0 0 24 25" xmlns="http://www.w3.org/2000/svg" xmlns:xlink="http://www.w3.org/1999/xlink"><style>:root>svg{display:none}:root>svg:target{display:block}</style><svg viewBox="0 0 15 16" id="angle-right" xmlns="http://www.w3.org/2000/svg"><path d="M5.625 3.313L10.313 8l-4.688 4.688" stroke="currentColor" stroke-linecap="round" stroke-linejoin="round"/></svg><svg viewBox="0 0 15 16" id="arrow-left" xmlns="http://www.w3.org/2000/svg"><path d="M12.656 8H2.344M6.563 3.781L2.343 8l4.22 4.219" stroke="currentColor" stroke-linecap="round" stroke-linejoin="round"/></svg><svg viewBox="0 0 20 20" id="arrow-up" xmlns="http://www.w3.org/2000/svg"><path d="M10 7.5L6.25 3.75 2.5 7.5" stroke="currentColor" stroke-width="1.5" stroke-linecap="round" stroke-linejoin="round"/><path d="M17.5 15H6.25V3.75" stroke="currentColor" stroke-width="1.5" stroke-linecap="round" stroke-linejoin="round"/></svg><svg viewBox="0 0 15 16" id="arrows-clock-wise" xmlns="http://www.w3.org/2000/svg"><path d="M10.324 6.342h2.813V3.529" stroke="currentColor" stroke-linecap="round" stroke-linejoin="round"/><path d="M3.855 4.355a5.15 5.15 0 017.29 0l1.992 1.987M4.676 9.658H1.863v2.813" stroke="currentColor" stroke-linecap="round" stroke-linejoin="round"/><path d="M11.145 11.645a5.149 5.149 0 01-7.29 0L1.863 9.658" stroke="currentColor" stroke-linecap="round" stroke-linejoin="round"/></svg><svg viewBox="0 0 20 21" id="category-crown" xmlns="http://www.w3.org/2000/svg"><path d="M3.523 15.813a.632.632 0 00.782.46 21.328 21.328 0 0111.382 0 .633.633 0 00.782-.46l1.992-8.461a.625.625 0 00-.86-.72l-3.953 1.759a.633.633 0 01-.804-.266l-2.297-4.14a.625.625 0 00-1.094 0l-2.297 4.14a.633.633 0 01-.805.266L2.398 6.633a.625.625 0 00-.86.719l1.985 8.46z" stroke="currentColor" stroke-linecap="round" stroke-linejoin="round"/></svg><svg viewBox="0 0 16 15" id="category-image" xmlns="http://www.w3.org/2000/svg"><path d="M13.156 2.813H2.844a.469.469 0 00-.469.468v8.438c0 .259.21.469.469.469h10.312c.26 0 .469-.21.469-.47V3.282a.469.469 0 00-.469-.469z" stroke="currentColor" stroke-linecap="round" stroke-linejoin="round"/><path d="M2.375 9.843l2.947-2.947a.469.469 0 01.668 0l2.614 2.613a.469.469 0 00.667 0l1.207-1.207a.468.468 0 01.668 0l2.479 2.479" stroke="currentColor" stroke-linecap="round" stroke-linejoin="round"/><path d="M9.64 6.328a.469.469 0 100-.937.469.469 0 000 .937z"/></svg><svg viewBox="0 0 15 15" id="category-play" xmlns="http://www.w3.org/2000/svg"><path d="M13.365 7.101L4.934 1.945a.469.469 0 00-.715.398v10.313a.469.469 0 00.715.398l8.431-5.156a.463.463 0 000-.797v0z" stroke="currentColor" stroke-linecap="round" stroke-linejoin="round"/></svg><svg viewBox="0 0 16 15" id="category-users" xmlns="http://www.w3.org/2000/svg"><path d="M5.656 9.375a3.047 3.047 0 100-6.094 3.047 3.047 0 000 6.094zM9.605 3.393a3.047 3.047 0 11.826 5.982M1.438 11.566a5.156 5.156 0 018.437 0M10.432 9.375a5.15 5.15 0 014.218 2.191" stroke="currentColor" stroke-linecap="round" stroke-linejoin="round"/></svg><svg viewBox="0 0 10 11" id="check" xmlns="http://www.w3.org/2000/svg"><path d="M8.438 3.313L4.061 7.686 1.876 5.5" stroke="currentColor" stroke-linecap="round" stroke-linejoin="round"/></svg><svg viewBox="0 0 15 16" id="close" xmlns="http://www.w3.org/2000/svg"><path d="M11.719 3.781L3.28 12.22M11.719 12.219L3.28 3.78" stroke="currentColor" stroke-linecap="round" stroke-linejoin="round"/></svg><svg viewBox="0 0 15 16" id="collection-add" xmlns="http://www.w3.org/2000/svg"><path d="M13.125 5.656v6.615a.416.416 0 01-.416.416H2.344a.469.469 0 01-.469-.468V4.25a.469.469 0 01.469-.469h3.123c.101 0 .2.034.281.094l1.629 1.219c.081.06.18.093.281.093h4.998a.469.469 0 01.469.47zM6.094 8.938h2.812M7.5 7.531v2.813" stroke="currentColor" stroke-linecap="round" stroke-linejoin="round"/></svg><svg viewBox="0 0 15 15" id="collections" xmlns="http://www.w3.org/2000/svg"><path d="M12.709 12.188h-10.4a.433.433 0 01-.434-.434V4.688h10.781a.469.469 0 01.469.468v6.615a.416.416 0 01-.416.416zM1.875 4.688V3.28a.469.469 0 01.469-.469h3.088a.463.463 0 01.328.135l1.74 1.74" stroke="currentColor" stroke-linecap="round" stroke-linejoin="round"/></svg><svg viewBox="0 0 15 16" id="copy" xmlns="http://www.w3.org/2000/svg"><path d="M12.656 11.281V2.844H4.22" stroke="currentColor" stroke-linecap="round" stroke-linejoin="round"/><path d="M10.781 4.719H2.344v8.437h8.437V4.72z" stroke="currentColor" stroke-linecap="round" stroke-linejoin="round"/></svg><svg viewBox="0 0 24 24" id="discord" xmlns="http://www.w3.org/2000/svg"><path fill-rule="evenodd" clip-rule="evenodd" d="M9.492 3.703l-.586.07s-2.628.288-4.547 1.83h-.022l-.024.022c-.431.396-.618.882-.915 1.594a23.02 23.02 0 00-.89 2.625c-.556 2.012-1.008 4.45-1.008 6.68v.187l.094.188c.694 1.218 1.927 1.995 3.07 2.53 1.143.537 2.13.821 2.813.845l.445.023.234-.398.82-1.454c.87.197 1.873.329 3.024.329s2.153-.132 3.023-.329l.82 1.454.235.398.445-.023c.683-.024 1.67-.308 2.813-.844 1.143-.536 2.376-1.313 3.07-2.531l.094-.188v-.187c0-2.23-.451-4.668-1.008-6.68a22.993 22.993 0 00-.89-2.625c-.297-.712-.484-1.198-.915-1.594l-.023-.024h-.024c-1.918-1.54-4.546-1.827-4.546-1.827l-.586-.07-.211.538s-.217.548-.352 1.173A15.071 15.071 0 0012 5.274c-.401 0-1.095.026-1.945.14-.136-.624-.352-1.172-.352-1.172l-.211-.539zM8.461 5.415c.032.105.064.195.094.28-.97.24-2.004.607-2.953 1.196l.796 1.266C8.344 6.949 11.138 6.774 12 6.774c.861 0 3.656.175 5.602 1.383l.796-1.266c-.948-.59-1.983-.955-2.953-1.196.03-.085.062-.175.094-.281.7.14 2.037.463 3.14 1.336-.005.003.282.437.54 1.055.264.636.556 1.483.82 2.437.507 1.831.905 4.06.938 6.024-.473.72-1.348 1.37-2.274 1.805a7.308 7.308 0 01-1.828.585l-.375-.632c.223-.083.442-.173.633-.258 1.154-.507 1.781-1.055 1.781-1.055l-.985-1.125s-.421.387-1.406.82c-.983.434-2.487.868-4.523.868-2.036 0-3.54-.434-4.523-.867-.985-.434-1.407-.82-1.407-.82l-.984 1.124s.627.548 1.781 1.055c.208.093.42.179.633.258l-.375.633a7.306 7.306 0 01-1.829-.587c-.925-.433-1.801-1.084-2.272-1.804.031-1.963.43-4.193.938-6.024.224-.828.498-1.642.82-2.437.257-.618.545-1.052.538-1.055 1.104-.873 2.441-1.195 3.14-1.335zm.914 5.109c-.58 0-1.093.33-1.406.75-.314.419-.469.934-.469 1.5 0 .565.155 1.08.469 1.5.313.419.826.75 1.406.75s1.093-.331 1.406-.75c.314-.42.469-.935.469-1.5 0-.566-.155-1.081-.469-1.5-.313-.42-.826-.75-1.406-.75zm5.25 0c-.58 0-1.093.33-1.406.75-.314.419-.469.934-.469 1.5 0 .565.155 1.08.469 1.5.313.419.826.75 1.406.75s1.093-.331 1.406-.75c.314-.42.469-.935.469-1.5 0-.566-.155-1.081-.469-1.5-.313-.42-.826-.75-1.406-.75zm-5.25 1.5c.041 0 .094.015.188.14.093.126.187.346.187.61s-.094.483-.188.61c-.093.125-.146.14-.187.14-.041 0-.094-.015-.188-.141a1.05 1.05 0 01-.187-.61c0-.263.094-.483.188-.61.093-.124.146-.14.187-.14zm5.25 0c.041 0 .094.015.188.14.093.126.187.346.187.61s-.094.483-.188.61c-.093.125-.146.14-.187.14-.041 0-.094-.015-.188-.141a1.051 1.051 0 01-.187-.61c0-.263.094-.483.188-.61.093-.124.146-.14.187-.14z"/></svg><svg viewBox="0 0 16 15" id="dots" xmlns="http://www.w3.org/2000/svg"><path d="M7.999 8.906a1.406 1.406 0 100-2.812 1.406 1.406 0 000 2.812zM7.999 4.219a1.406 1.406 0 100-2.813 1.406 1.406 0 000 2.813zM7.999 13.594a1.406 1.406 0 100-2.813 1.406 1.406 0 000 2.813z" stroke="currentColor" stroke-linecap="round" stroke-linejoin="round"/></svg><svg viewBox="0 0 20 20" id="edit" xmlns="http://www.w3.org/2000/svg"><path d="M10 12.5H7.5V10L15 2.5 17.5 5 10 12.5zM13.125 4.375l2.5 2.5" stroke="currentColor" stroke-linecap="round" stroke-linejoin="round"/><path d="M16.875 9.375v6.875a.624.624 0 01-.625.625H3.75a.625.625 0 01-.625-.625V3.75a.625.625 0 01.625-.625h6.875" stroke="currentColor" stroke-linecap="round" stroke-linejoin="round"/></svg><svg viewBox="0 0 10 11" id="eye" xmlns="http://www.w3.org/2000/svg"><path d="M5 2.688C1.875 2.688.625 5.5.625 5.5S1.875 8.313 5 8.313 9.375 5.5 9.375 5.5 8.125 2.687 5 2.687z" stroke="currentColor" stroke-linecap="round" stroke-linejoin="round"/><path d="M5 7.063a1.563 1.563 0 100-3.126 1.563 1.563 0 000 3.126z" stroke="currentColor" stroke-linecap="round" stroke-linejoin="round"/></svg><svg viewBox="0 0 16 16" id="folder" xmlns="http://www.w3.org/2000/svg"><path d="M13.625 5.656v6.615a.416.416 0 01-.416.416H2.844a.469.469 0 01-.469-.468V4.25a.469.469 0 01.469-.469h3.123c.101 0 .2.034.281.094l1.629 1.219c.081.06.18.093.281.093h4.998a.469.469 0 01.469.47zM6.594 8.938h2.812M8 7.531v2.813" stroke="currentColor" stroke-linecap="round" stroke-linejoin="round"/></svg><svg viewBox="0 0 24 25" id="google" xmlns="http://www.w3.org/2000/svg"><path d="M12 1a12 12 0 1012 12A12.023 12.023 0 0012 1zm0 21.23a9.23 9.23 0 116.53-15.76.923.923 0 010 1.303.911.911 0 01-1.303 0 7.396 7.396 0 102.1 6.15H12a.923.923 0 010-1.846h8.308a.923.923 0 01.923.923A9.243 9.243 0 0112 22.23z"/></svg><svg viewBox="0 0 20 20" id="grid" xmlns="http://www.w3.org/2000/svg"><path d="M8.75 3.75h-5v5h5v-5zM16.25 3.75h-5v5h5v-5zM8.75 11.25h-5v5h5v-5zM16.25 11.25h-5v5h5v-5z" stroke="currentColor" stroke-linecap="round" stroke-linejoin="round"/></svg><svg viewBox="0 0 15 15" id="group" xmlns="http://www.w3.org/2000/svg"><path d="M5.156 9.375a3.047 3.047 0 100-6.094 3.047 3.047 0 000 6.094zM9.105 3.393a3.047 3.047 0 11.826 5.982M.938 11.566a5.156 5.156 0 018.437 0M9.932 9.375a5.15 5.15 0 014.218 2.191" stroke="currentColor" stroke-linecap="round" stroke-linejoin="round"/></svg><svg viewBox="0 0 12 13" id="image" xmlns="http://www.w3.org/2000/svg"><path d="M9.75 2.375h-7.5a.375.375 0 00-.375.375v7.5c0 .207.168.375.375.375h7.5a.375.375 0 00.375-.375v-7.5a.375.375 0 00-.375-.375z" stroke="currentColor" stroke-linecap="round" stroke-linejoin="round"/><path d="M10.125 8L8.142 6.017a.375.375 0 00-.534 0l-2.09 2.09a.375.375 0 01-.535 0l-.966-.965a.375.375 0 00-.534 0L1.875 8.75" stroke="currentColor" stroke-linecap="round" stroke-linejoin="round"/><path d="M4.688 5.188a.375.375 0 100-.75.375.375 0 000 .75z"/></svg><svg viewBox="0 0 15 16" id="link" xmlns="http://www.w3.org/2000/svg"><path d="M5.514 9.986l3.972-3.978M8.496 10.982l-1.658 1.659a2.813 2.813 0 11-3.979-3.979l1.658-1.658M10.482 8.996l1.659-1.658a2.813 2.813 0 10-3.979-3.979L6.504 5.018" stroke="currentColor" stroke-linecap="round" stroke-linejoin="round"/></svg><svg viewBox="0 0 20 20" id="list" xmlns="http://www.w3.org/2000/svg"><path d="M16.25 11.25H3.75a.625.625 0 00-.625.625V15c0 .345.28.625.625.625h12.5c.345 0 .625-.28.625-.625v-3.125a.625.625 0 00-.625-.625zM16.25 4.375H3.75A.625.625 0 003.125 5v3.125c0 .345.28.625.625.625h12.5c.345 0 .625-.28.625-.625V5a.625.625 0 00-.625-.625z" stroke="currentColor" stroke-linecap="round" stroke-linejoin="round"/></svg><svg viewBox="0 0 24 24" id="loader" xmlns="http://www.w3.org/2000/svg"><path d="M12 3v3M21 12h-3M18.365 18.365l-2.119-2.119M12 21v-3M5.635 18.365l2.119-2.119M3 12h3M5.635 5.635l2.119 2.119" stroke="currentColor" stroke-linecap="round" stroke-linejoin="round"/></svg><svg viewBox="0 0 15 16" id="manage" xmlns="http://www.w3.org/2000/svg"><path d="M9.375 5.656H2.812a.469.469 0 00-.468.469v6.563c0 .258.21.468.469.468h6.562c.259 0 .469-.21.469-.469V6.125a.469.469 0 00-.469-.469zM9.375 2.844h-.938M11.719 2.844h.469a.47.47 0 01.468.469v.468M12.656 7.063v-.938M11.719 10.344h.469a.47.47 0 00.468-.469v-.469M6.094 2.844h-.469a.469.469 0 00-.469.469v.468" stroke="currentColor" stroke-linecap="round" stroke-linejoin="round"/></svg><svg viewBox="0 0 21 20" id="menu-collections" xmlns="http://www.w3.org/2000/svg"><path d="M10.5 6.25h6.875a.625.625 0 01.625.625v8.75a.624.624 0 01-.625.625H3.625A.625.625 0 013 15.625v-7.5" stroke="currentColor" stroke-linecap="round" stroke-linejoin="round"/><path d="M7.79 8.125H3V5a.625.625 0 01.625-.625h4.164c.135 0 .267.044.375.125L10.5 6.25 8.164 8a.633.633 0 01-.375.125v0z" stroke="currentColor" stroke-linecap="round" stroke-linejoin="round"/></svg><svg viewBox="0 0 21 20" id="menu-explore" xmlns="http://www.w3.org/2000/svg"><path d="M10.5 17.5a7.5 7.5 0 100-15 7.5 7.5 0 000 15z" stroke="currentColor" stroke-linecap="round" stroke-linejoin="round"/><path d="M11.828 11.328l2.195-4.86-4.851 2.204-1.985 4.64 4.641-1.984z" stroke="currentColor" stroke-linecap="round" stroke-linejoin="round"/></svg><svg viewBox="0 0 21 20" id="menu-home" xmlns="http://www.w3.org/2000/svg"><path d="M12.375 16.25V12.5a.625.625 0 00-.625-.625h-2.5a.625.625 0 00-.625.625v3.75a.625.625 0 01-.625.625H4.25a.625.625 0 01-.625-.625V9.023a.648.648 0 01.203-.46l6.25-5.68a.625.625 0 01.844 0l6.25 5.68a.648.648 0 01.203.46v7.227a.625.625 0 01-.625.625H13a.625.625 0 01-.625-.625z" stroke="currentColor" stroke-linecap="round" stroke-linejoin="round"/></svg><svg viewBox="0 0 15 16" id="pencil" xmlns="http://www.w3.org/2000/svg"><path d="M5.432 13.156h-2.62a.469.469 0 01-.468-.469v-2.619a.463.463 0 01.135-.328l7.03-7.031a.469.469 0 01.669 0l2.613 2.613a.469.469 0 010 .668L5.76 13.021a.462.462 0 01-.328.135v0zM7.969 4.25l3.281 3.281M9.61 5.89l-5.626 5.626M5.596 13.127L2.373 9.904" stroke="currentColor" stroke-linecap="round" stroke-linejoin="round"/></svg><svg viewBox="0 0 12 13" id="play" xmlns="http://www.w3.org/2000/svg"><path d="M10.692 6.181L3.947 2.056a.375.375 0 00-.572.319v8.25a.375.375 0 00.572.319l6.745-4.125a.37.37 0 000-.638v0z" stroke="currentColor" stroke-linecap="round" stroke-linejoin="round"/></svg><svg viewBox="0 0 10 11" id="plus" xmlns="http://www.w3.org/2000/svg"><path d="M1.563 5.5h6.875M5 2.063v6.874" stroke="currentColor" stroke-linecap="round" stroke-linejoin="round"/></svg><svg viewBox="0 0 15 15" id="profile" xmlns="http://www.w3.org/2000/svg"><path d="M8.906 6.563h2.344M8.906 8.438h2.344M5.396 8.438a1.406 1.406 0 100-2.813 1.406 1.406 0 000 2.813zM3.58 9.844a1.875 1.875 0 013.633 0" stroke="currentColor" stroke-linecap="round" stroke-linejoin="round"/><path d="M12.656 2.813H2.344a.469.469 0 00-.469.468v8.438c0 .259.21.469.469.469h10.312c.26 0 .469-.21.469-.47V3.282a.469.469 0 00-.469-.469z" stroke="currentColor" stroke-linecap="round" stroke-linejoin="round"/></svg><svg viewBox="0 0 24 24" id="reddit" xmlns="http://www.w3.org/2000/svg"><path d="M11.053 7.815l.751-3.536a2 2 0 012.372-1.54l3.196.68a2 2 0 11-.415 1.956l-3.197-.68-.666 3.135c1.785.137 3.558.73 5.164 1.7A3.192 3.192 0 0123 12.203v.021a3.193 3.193 0 01-1.207 2.55 2.8 2.8 0 01-.008.123c0 3.998-4.45 7.03-9.799 7.03-5.333 0-9.708-3.024-9.705-6.953a5.337 5.337 0 01-.01-.181 3.193 3.193 0 013.454-5.35 11.442 11.442 0 015.328-1.628zm9.286 5.526a1.19 1.19 0 00.662-1.075 1.192 1.192 0 00-2.016-.806l-.585.56-.67-.455c-1.615-1.098-3.452-1.725-5.23-1.764h-1.006c-1.875.028-3.652.6-5.237 1.675l-.664.45-.583-.55a1.192 1.192 0 10-1.315 1.952l.633.29-.053.695a3.95 3.95 0 00.003.584c0 2.71 3.356 5.03 7.708 5.03 4.371 0 7.8-2.336 7.802-5.107a3.3 3.3 0 000-.507l-.052-.672.603-.3zM6.951 13.5a1.5 1.5 0 113 0 1.5 1.5 0 01-3 0zm7 0a1.5 1.5 0 113 0 1.5 1.5 0 01-3 0zm-1.985 5.103c-1.397 0-2.766-.37-3.88-1.21a.424.424 0 01.596-.597c.945.693 2.123.99 3.27.99 1.145 0 2.33-.275 3.283-.959a.44.44 0 01.732.206.47.47 0 01-.12.423c-.683.797-2.483 1.147-3.88 1.147"/></svg><svg viewBox="0 0 24 25" id="reddit-filled" xmlns="http://www.w3.org/2000/svg"><g clip-path="url(#biclip0_2_9545)"><path d="M12 24.5c6.627 0 12-5.373 12-12S18.627.5 12 .5 0 5.873 0 12.5s5.373 12 12 12z" fill-opacity=".7"/><path d="M20.16 12.627c0-.977-.803-1.771-1.793-1.771-.487 0-.918.184-1.233.496-1.22-.865-2.911-1.432-4.776-1.502l.818-3.785 2.653.553a1.271 1.271 0 001.276 1.205c.703 0 1.277-.567 1.277-1.262 0-.694-.574-1.261-1.277-1.261-.502 0-.932.283-1.133.709l-2.968-.624a.361.361 0 00-.244.043.345.345 0 00-.143.198l-.904 4.224c-1.907.056-3.614.609-4.847 1.502a1.82 1.82 0 00-1.234-.496c-.99 0-1.792.794-1.792 1.771 0 .723.43 1.333 1.061 1.616a3.28 3.28 0 00-.043.539c0 2.721 3.198 4.918 7.156 4.918 3.958 0 7.156-2.197 7.156-4.918 0-.184-.014-.354-.043-.524a1.832 1.832 0 001.033-1.63zM7.898 13.89c0-.694.574-1.261 1.277-1.261.702 0 1.276.566 1.276 1.261s-.574 1.261-1.276 1.261a1.272 1.272 0 01-1.277-1.261zm7.128 3.33c-.875.865-2.539.922-3.026.922-.488 0-2.166-.07-3.026-.921a.33.33 0 010-.468.34.34 0 01.473 0c.545.539 1.721.737 2.567.737.846 0 2.008-.198 2.567-.737a.34.34 0 01.474 0c.1.142.1.34-.03.468zm-.23-2.069a1.272 1.272 0 01-1.276-1.261c0-.694.574-1.261 1.276-1.261.703 0 1.277.566 1.277 1.261s-.574 1.261-1.277 1.261z"/></g><defs><clipPath id="biclip0_2_9545"><rect y=".5" width="24" height="24" rx="11"/></clipPath></defs></svg><svg viewBox="0 0 10 10" id="reply" xmlns="http://www.w3.org/2000/svg"><path d="M9.062 5.625a2.504 2.504 0 01-2.5 2.5H3.125a.312.312 0 110-.625h3.437a1.875 1.875 0 100-3.75H3.437v1.562a.312.312 0 01-.312.313.324.324 0 01-.223-.09L1.027 3.66a.316.316 0 010-.445L2.902 1.34a.328.328 0 01.344-.067.312.312 0 01.191.29v1.562h3.125a2.504 2.504 0 012.5 2.5z"/></svg><svg viewBox="0 0 15 16" id="search" xmlns="http://www.w3.org/2000/svg"><path d="M6.797 12.219a4.922 4.922 0 100-9.844 4.922 4.922 0 000 9.844zM10.277 10.777l2.848 2.848" stroke="currentColor" stroke-linecap="round" stroke-linejoin="round"/></svg><svg viewBox="0 0 15 15" id="settings" xmlns="http://www.w3.org/2000/svg"><path d="M7.5 10.313a2.813 2.813 0 100-5.626 2.813 2.813 0 000 5.625z" stroke="currentColor" stroke-linecap="round" stroke-linejoin="round"/><path d="M11.566 4.729c.14.201.264.415.369.638l1.517.844c.19.849.192 1.728.006 2.578l-1.523.844a4.304 4.304 0 01-.37.639l.03 1.74a6.094 6.094 0 01-2.233 1.295l-1.494-.897a5.198 5.198 0 01-.738 0l-1.488.89a6.013 6.013 0 01-2.239-1.288l.03-1.735a4.69 4.69 0 01-.37-.644l-1.517-.844a5.977 5.977 0 01-.006-2.578l1.524-.844c.104-.223.228-.437.369-.638l-.03-1.74a6.094 6.094 0 012.233-1.296l1.494.897c.246-.018.492-.018.738 0l1.489-.89c.83.262 1.594.702 2.238 1.288l-.03 1.74z" stroke="currentColor" stroke-linecap="round" stroke-linejoin="round"/></svg><svg viewBox="0 0 15 16" id="share" xmlns="http://www.w3.org/2000/svg"><path d="M3.75 9.875a1.875 1.875 0 100-3.75 1.875 1.875 0 000 3.75zM10.313 14.094a1.875 1.875 0 100-3.75 1.875 1.875 0 000 3.75zM10.313 5.656a1.875 1.875 0 100-3.75 1.875 1.875 0 000 3.75zM8.736 4.795l-3.41 2.191M5.326 9.014l3.41 2.191" stroke="currentColor" stroke-linecap="round" stroke-linejoin="round"/></svg><svg viewBox="0 0 15 15" id="signout" xmlns="http://www.w3.org/2000/svg"><path d="M10.195 5.04l2.461 2.46-2.46 2.46M6.094 7.5h6.562M6.094 12.656H2.812a.469.469 0 01-.468-.469V2.813a.469.469 0 01.469-.47h3.28" stroke="currentColor" stroke-linecap="round" stroke-linejoin="round"/></svg><svg viewBox="0 0 16 16" id="trash" xmlns="http://www.w3.org/2000/svg"><path d="M13.5 3.5h-11M6.5 6.5v4M9.5 6.5v4M12.5 3.5V13a.5.5 0 01-.5.5H4a.5.5 0 01-.5-.5V3.5M10.5 3.5v-1a1 1 0 00-1-1h-3a1 1 0 00-1 1v1" stroke="currentColor" stroke-linecap="round" stroke-linejoin="round"/></svg><svg viewBox="0 0 24 24" id="twitter" xmlns="http://www.w3.org/2000/svg"><path fill-rule="evenodd" clip-rule="evenodd" d="M21.586 21.375l-7.497-10.928.012.01 6.76-7.832h-2.259L13.095 9 8.722 2.625H2.798l7 10.203-.002-.001-7.382 8.548h2.26l6.122-7.093 4.865 7.093h5.925zM7.827 4.33l10.52 15.34h-1.79L6.028 4.33h1.798z"/></svg><svg viewBox="0 0 24 24" id="user" xmlns="http://www.w3.org/2000/svg"><path d="M12 21a9 9 0 100-18 9 9 0 000 18z" stroke="currentColor" stroke-linecap="round" stroke-linejoin="round"/><path d="M12 15a3.75 3.75 0 100-7.5 3.75 3.75 0 000 7.5zM5.98 18.694a6.75 6.75 0 0112.038 0" stroke="currentColor" stroke-linecap="round" stroke-linejoin="round"/></svg><svg viewBox="0 0 16 16" id="user-add" xmlns="http://www.w3.org/2000/svg"><path d="M11.719 8.469h2.812M13.125 7.063v2.812M6.328 9.875a3.516 3.516 0 100-7.031 3.516 3.516 0 000 7.031zM1.3 12.219a6.564 6.564 0 0110.056 0" stroke="currentColor" stroke-linecap="round" stroke-linejoin="round"/></svg><svg viewBox="0 0 16 15" id="video-actions" xmlns="http://www.w3.org/2000/svg"><path d="M8 8.906a1.406 1.406 0 100-2.812 1.406 1.406 0 000 2.812zM3.313 8.906a1.406 1.406 0 100-2.812 1.406 1.406 0 000 2.812zM12.688 8.906a1.406 1.406 0 100-2.812 1.406 1.406 0 000 2.812z" stroke="currentColor" stroke-linecap="round" stroke-linejoin="round"/></svg><svg viewBox="0 0 24 24" id="warning" xmlns="http://www.w3.org/2000/svg"><path d="M22.2 17.633L14 3.396a2.321 2.321 0 00-4.003 0L1.8 17.633a2.204 2.204 0 000 2.224A2.283 2.283 0 003.801 21h16.397a2.283 2.283 0 002-1.143 2.204 2.204 0 00.001-2.224zm-1.301 1.473a.796.796 0 01-.701.394H3.8a.797.797 0 01-.702-.394.712.712 0 010-.724l8.199-14.237a.82.82 0 011.406 0l8.198 14.238a.71.71 0 01-.003.723zm-9.65-5.606V9.75a.75.75 0 111.5 0v3.75a.75.75 0 01-1.5 0zm1.875 3.375a1.125 1.125 0 11-2.25 0 1.125 1.125 0 012.25 0z"/></svg><svg viewBox="0 0 24 24" id="warning-fill" xmlns="http://www.w3.org/2000/svg"><path d="M22.192 17.625L13.95 3.375a2.25 2.25 0 00-3.9 0l-8.24 14.25A2.24 2.24 0 003.75 21h16.5a2.24 2.24 0 001.94-3.375zM11.25 9.75a.75.75 0 111.5 0v3.75a.75.75 0 01-1.5 0V9.75zm.75 8.25a1.125 1.125 0 110-2.25 1.125 1.125 0 010 2.25z"/></svg><svg viewBox="0 0 24 25" id="x" xmlns="http://www.w3.org/2000/svg"><path fill-rule="evenodd" clip-rule="evenodd" d="M.018 24.5H2.11l8.186-9.31 6.51 9.31H24l-9.701-13.807L23.207.5h-2.128l-7.736 8.817L7.141.5H0l9.376 13.367L.018 24.5zM2.885 2.07h3.228l14.984 20.949h-3.264L2.885 2.069z"/></svg></svg>