<?xml version="1.0" encoding="utf-8"?><svg viewBox="0 0 24 24" xmlns="http://www.w3.org/2000/svg" xmlns:xlink="http://www.w3.org/1999/xlink"><style>:root>svg{display:none}:root>svg:target{display:block}</style><svg viewBox="0 0 15 16" id="close" xmlns="http://www.w3.org/2000/svg"><path d="M11.719 3.781L3.28 12.22M11.719 12.219L3.28 3.78" stroke="currentColor" stroke-linecap="round" stroke-linejoin="round"/></svg><svg viewBox="0 0 10 11" id="eye" xmlns="http://www.w3.org/2000/svg"><path d="M5 2.688C1.875 2.688.625 5.5.625 5.5S1.875 8.313 5 8.313 9.375 5.5 9.375 5.5 8.125 2.687 5 2.687z" stroke="currentColor" stroke-linecap="round" stroke-linejoin="round"/><path d="M5 7.063a1.563 1.563 0 100-3.126 1.563 1.563 0 000 3.126z" stroke="currentColor" stroke-linecap="round" stroke-linejoin="round"/></svg><svg viewBox="0 0 10 11" id="group" xmlns="http://www.w3.org/2000/svg"><path d="M3.438 6.75a2.031 2.031 0 100-4.062 2.031 2.031 0 000 4.062zM6.07 2.762a2.031 2.031 0 11.55 3.988M.625 8.21a3.438 3.438 0 015.625 0M6.621 6.75a3.434 3.434 0 012.813 1.46" stroke="currentColor" stroke-linecap="round" stroke-linejoin="round"/></svg><svg viewBox="0 0 24 24" id="loader" xmlns="http://www.w3.org/2000/svg"><path d="M12 3v3M21 12h-3M18.365 18.365l-2.119-2.119M12 21v-3M5.635 18.365l2.119-2.119M3 12h3M5.635 5.635l2.119 2.119" stroke="currentColor" stroke-linecap="round" stroke-linejoin="round"/></svg><svg viewBox="0 0 15 16" id="search" xmlns="http://www.w3.org/2000/svg"><path d="M6.797 12.219a4.922 4.922 0 100-9.844 4.922 4.922 0 000 9.844zM10.277 10.777l2.848 2.848" stroke="currentColor" stroke-linecap="round" stroke-linejoin="round"/></svg><svg viewBox="0 0 24 24" id="user" xmlns="http://www.w3.org/2000/svg"><path d="M12 21a9 9 0 100-18 9 9 0 000 18z" stroke="currentColor" stroke-linecap="round" stroke-linejoin="round"/><path d="M12 15a3.75 3.75 0 100-7.5 3.75 3.75 0 000 7.5zM5.98 18.694a6.75 6.75 0 0112.038 0" stroke="currentColor" stroke-linecap="round" stroke-linejoin="round"/></svg></svg>